<svg xmlns="http://www.w3.org/2000/svg" width="212" height="65" viewBox="0 0 212 65" fill="none">
  <g clip-path="url(#clip0_130_2532)">
    <path d="M19.3029 7.02047L19.2976 6.70892C19.2941 6.54698 19.2313 6.51882 19.109 6.62443C18.6294 7.03895 18.2363 6.7142 17.7568 6.61122C15.4385 6.11133 13.122 5.6 10.8072 5.07723C10.7638 5.06755 10.7237 5.04693 10.6907 5.01734C10.6576 4.98776 10.6328 4.95019 10.6185 4.90826L10.5635 4.7472C10.5041 4.5747 10.4281 4.5659 10.3355 4.7208L10.1363 5.04555C10.1188 5.07482 10.0915 5.09679 10.0592 5.10745C10.027 5.11812 9.99205 5.11676 9.96073 5.10363L9.63055 4.96634C9.58672 4.94805 9.5396 4.93911 9.49213 4.94007C9.44465 4.94104 9.39783 4.95189 9.35457 4.97194C9.31132 4.992 9.27255 5.02084 9.24068 5.05667C9.20882 5.09249 9.18453 5.13454 9.16934 5.1802C8.93873 5.88779 8.80246 6.61475 8.76053 7.36106C8.759 7.38813 8.76376 7.41518 8.77443 7.44007C8.78511 7.46496 8.80139 7.487 8.822 7.50443C8.84261 7.52186 8.86698 7.53421 8.89315 7.54049C8.91933 7.54677 8.9466 7.5468 8.9728 7.5406C9.44449 7.43147 9.63841 7.60396 9.55455 8.05809C9.51262 8.28339 9.5825 8.3274 9.76419 8.1901L10.0184 7.99736C10.048 7.97496 10.082 7.95915 10.1181 7.95096C10.1543 7.94276 10.1917 7.94238 10.228 7.94984L18.0817 9.68977C18.1287 9.6999 18.1717 9.72348 18.2056 9.75768C18.2396 9.79187 18.263 9.83523 18.273 9.88251L18.3176 10.0805C18.3612 10.2794 18.4329 10.29 18.5325 10.1122L18.7159 9.78218C18.7358 9.74698 18.7664 9.71921 18.8033 9.70303C18.8401 9.68685 18.8812 9.68312 18.9203 9.69241L21.7426 10.3393C21.7579 10.3428 21.7738 10.3431 21.7892 10.3403C21.8047 10.3375 21.8195 10.3317 21.8326 10.3231C21.8458 10.3145 21.8572 10.3033 21.866 10.2902C21.8748 10.2771 21.881 10.2624 21.8841 10.2469L22.3925 7.95512C22.3967 7.93604 22.3971 7.91631 22.3938 7.89706C22.3904 7.87781 22.3832 7.85943 22.3728 7.84298C22.3623 7.82653 22.3487 7.81234 22.3327 7.80122C22.3168 7.79011 22.2988 7.78229 22.2798 7.77822L19.4234 7.17096C19.3892 7.16367 19.3586 7.14473 19.3366 7.11731C19.3146 7.0899 19.3027 7.05569 19.3029 7.02047Z" stroke="#808080" stroke-width="2"/>
    <path d="M26.8605 17.1327L26.871 17.4522" stroke="#FFDB93" stroke-width="2"/>
    <path d="M26.8709 17.4521L26.5879 17.8482" stroke="#808080" stroke-width="2"/>
    <path d="M26.5879 17.8482C26.0708 18.3287 25.8158 18.9228 25.8227 19.6304" stroke="#FFDB93" stroke-width="2"/>
    <path d="M25.8227 19.6304C25.5415 20.6953 25.476 21.7734 25.6262 22.8647" stroke="#808080" stroke-width="2"/>
    <path d="M25.6262 22.8647C25.6838 23.2739 25.6445 23.7069 25.7782 24.0792C26.3232 25.5842 27.8877 27.9023 29.612 28.1347" stroke="#FFDB93" stroke-width="2"/>
    <path d="M29.612 28.1346L30.0051 28.2878" stroke="#808080" stroke-width="2"/>
    <path d="M30.0051 28.2878L30.0025 28.367C30.0026 28.3937 30.0119 28.4195 30.0287 28.4397C30.0455 28.46 30.0687 28.4735 30.0942 28.4779L31.1843 28.6627" stroke="#FFDB93" stroke-width="2"/>
    <path d="M31.1843 28.6627L33.1497 28.8607" stroke="#808080" stroke-width="2"/>
    <path d="M33.1497 28.8607L34.591 28.7815C34.6329 28.778 34.6338 28.771 34.5936 28.7604L34.5229 28.7419C34.2573 28.668 34.2661 28.6495 34.5491 28.6865C34.8303 28.7234 35.0592 28.631 35.2357 28.4092" stroke="#FFDB93" stroke-width="2"/>
    <path d="M35.2357 28.4092L35.5082 28.3327" stroke="#808080" stroke-width="2"/>
    <path d="M35.5082 28.3327C36.2804 28.1496 36.9355 27.7606 37.4736 27.1657" stroke="#FFDB93" stroke-width="2"/>
    <path d="M37.4736 27.1657C38.2632 26.5901 38.8249 25.8438 39.1586 24.9267" stroke="#FFDB93" stroke-width="2"/>
    <path d="M39.1586 24.9267L39.4494 23.9868" stroke="#808080" stroke-width="2"/>
    <path d="M39.4494 23.9868L39.5123 24.1796C39.5525 24.2975 39.5831 24.2948 39.604 24.1716L39.756 23.2607" stroke="#FFDB93" stroke-width="2"/>
    <path d="M39.756 23.2607C39.9866 22.3366 40.0085 21.4126 39.8216 20.4885" stroke="#808080" stroke-width="2"/>
    <path d="M39.8215 20.4885L40.0941 20.235" stroke="#FFDB93" stroke-width="2"/>
    <path d="M40.0941 20.235L46.2785 17.1538C46.3194 17.1332 46.3552 17.1035 46.3833 17.0669C46.4114 17.0304 46.4311 16.9879 46.441 16.9426L46.9363 14.7274C46.9642 14.6024 46.9214 14.5672 46.8078 14.6218L39.3079 18.1888" stroke="#808080" stroke-width="2"/>
    <path d="M39.3079 18.1888H39.0459" stroke="#FFDB93" stroke-width="2"/>
    <path d="M39.0459 18.1888L38.8389 17.7822" stroke="#808080" stroke-width="2"/>
    <path d="M38.8388 17.7822C38.7026 17.1767 38.3567 16.7621 37.8011 16.5386" stroke="#FFDB93" stroke-width="2"/>
    <path d="M37.8011 16.5386L37.6596 16.3961" stroke="#808080" stroke-width="2"/>
    <path d="M37.6596 16.3961C37.5373 15.8821 37.2133 15.6216 36.6874 15.6145" stroke="#FFDB93" stroke-width="2"/>
    <path d="M36.6874 15.6145L36.6219 15.5934" stroke="#808080" stroke-width="2"/>
    <path d="M36.6219 15.5934L36.7503 15.5274C36.7584 15.523 36.7652 15.5167 36.7702 15.509C36.7752 15.5013 36.7782 15.4925 36.779 15.4833C36.7798 15.4742 36.7783 15.465 36.7747 15.4565C36.771 15.4481 36.7654 15.4407 36.7582 15.435C36.407 15.1745 36.0122 15.0363 35.5737 15.0205" stroke="#FFDB93" stroke-width="2"/>
    <path d="M35.5737 15.0205L35.4427 14.9545" stroke="#808080" stroke-width="2"/>
    <path d="M35.4427 14.9545L35.6235 14.9439C35.7196 14.9368 35.7248 14.9104 35.6392 14.8647C34.9229 14.488 34.1569 14.3287 33.341 14.3868" stroke="#FFDB93" stroke-width="2"/>
    <path d="M33.341 14.3868L30.7912 14.4713" stroke="#808080" stroke-width="2"/>
    <path d="M30.7912 14.4713C30.1326 14.6209 29.5648 14.9289 29.0879 15.3954" stroke="#FFDB93" stroke-width="2"/>
    <path d="M29.0879 15.3954L28.6948 15.6805" stroke="#808080" stroke-width="2"/>
    <path d="M28.6948 15.6805L28.4223 15.604" stroke="#FFDB93" stroke-width="2"/>
    <path d="M28.4223 15.604L23.3097 9.41255C23.2293 9.31574 23.176 9.32807 23.1498 9.44952L22.6388 11.6805C22.629 11.7224 22.6289 11.766 22.6384 11.8081C22.6479 11.8502 22.6669 11.8897 22.6938 11.9234L26.8605 17.1327" stroke="#808080" stroke-width="2"/>
    <path d="M28.4223 15.604L26.8605 17.1327" stroke="#805C14" stroke-width="2"/>
    <path d="M35.5737 15.0205L36.6219 15.5934" stroke="#805C14" stroke-width="2"/>
    <path d="M36.6874 15.6145L37.6596 16.3961" stroke="#805C14" stroke-width="2"/>
    <path d="M37.8011 16.5386L38.8388 17.7822" stroke="#805C14" stroke-width="2"/>
    <path d="M39.0459 18.1888L39.8215 20.4885" stroke="#805C14" stroke-width="2"/>
    <path d="M39.756 23.2607L39.4494 23.9868" stroke="#805C14" stroke-width="2"/>
    <path d="M39.1585 24.9267C38.6344 25.7417 38.0291 26.481 37.3425 27.1445" stroke="#805C14" stroke-width="2"/>
    <path d="M37.3425 27.1446L35.5082 28.3327" stroke="#805C14" stroke-width="2"/>
    <path d="M35.2357 28.4092L33.1497 28.8607" stroke="#805C14" stroke-width="2"/>
    <path d="M31.1843 28.6627L30.0051 28.2878" stroke="#805C14" stroke-width="2"/>
    <path d="M29.612 28.1347C27.5226 26.9677 26.194 25.211 25.6262 22.8647" stroke="#805C14" stroke-width="2"/>
    <path d="M25.8227 19.6304L26.5879 17.8482" stroke="#805C14" stroke-width="2"/>
    <path d="M26.8709 17.4522L28.6948 15.6805" stroke="#805C14" stroke-width="2"/>
    <path d="M29.0879 15.3954L31.0507 14.5716C31.166 14.5241 31.1616 14.4959 31.0376 14.4871L30.7912 14.4713" stroke="#805C14" stroke-width="2"/>
    <path d="M35.4427 14.9545L33.341 14.3868" stroke="#805C14" stroke-width="2"/>
    <path d="M37.4736 27.1657L37.3425 27.1446" stroke="#FFB727" stroke-width="2"/>
    <path d="M40.0941 20.235L40.0233 20.2244C40.0051 20.2211 39.9881 20.2129 39.9743 20.2009C39.9604 20.1888 39.9502 20.1732 39.9447 20.1558L39.3079 18.1888" stroke="#805C14" stroke-width="2"/>
    <path d="M59.499 19.5908L60.5184 19.8522C60.5425 19.8583 60.5675 19.8595 60.5921 19.8557C60.6167 19.8518 60.6403 19.843 60.6616 19.8297C60.6828 19.8164 60.7012 19.799 60.7158 19.7783C60.7304 19.7577 60.7408 19.7343 60.7464 19.7096L61.2207 17.6502C61.2295 17.6118 61.2306 17.5721 61.2238 17.5333C61.217 17.4945 61.2026 17.4575 61.1813 17.4245C61.16 17.3915 61.1323 17.3631 61.0999 17.3411C61.0675 17.3191 61.0311 17.3039 60.9927 17.2964L60.0231 17.101C59.9901 17.0947 59.9606 17.0758 59.9403 17.0481C59.92 17.0203 59.9103 16.9855 59.9131 16.9505L59.9366 16.6522C59.9524 16.4709 59.8851 16.4304 59.7349 16.5307L59.4964 16.6891C59.4591 16.7141 59.4172 16.7312 59.373 16.7394C59.3289 16.7476 59.2835 16.7466 59.2396 16.7366L51.0845 14.9281C51.0351 14.9176 50.9905 14.8906 50.9577 14.8514C50.925 14.8122 50.906 14.763 50.9037 14.7116C50.9002 14.6148 50.8443 14.5584 50.736 14.5426C50.6884 14.5353 50.6398 14.5454 50.599 14.5711C50.5581 14.5967 50.5277 14.6363 50.5132 14.6825L50.4739 14.8198C50.4605 14.8635 50.4311 14.9003 50.3917 14.9229C50.3523 14.9455 50.3058 14.952 50.2617 14.9413L48.2124 14.4581C48.1926 14.4534 48.172 14.4526 48.1519 14.456C48.1319 14.4593 48.1127 14.4666 48.0956 14.4774C48.0785 14.4883 48.0638 14.5024 48.0523 14.5191C48.0409 14.5357 48.0329 14.5545 48.029 14.5743L47.5442 16.8343C47.5364 16.8725 47.5439 16.9122 47.565 16.9448C47.5861 16.9774 47.6191 17.0004 47.6569 17.0086L49.735 17.4442C49.7689 17.451 49.7996 17.4694 49.8216 17.4964C49.8435 17.5234 49.8555 17.5572 49.8555 17.5921V17.938C49.8555 18.1333 49.928 18.1668 50.073 18.0383L50.2669 17.8693C50.2994 17.8407 50.3379 17.8201 50.3793 17.8091C50.4207 17.7981 50.4638 17.797 50.5054 17.806L58.5844 19.5881C58.6757 19.6085 58.7575 19.6618 58.8151 19.7386L58.9828 19.9604C58.9972 19.9801 59.0165 19.9955 59.0388 20.0053C59.061 20.0151 59.0854 20.0189 59.1095 20.0162C59.1336 20.0135 59.1567 20.0045 59.1763 19.9901C59.1959 19.9757 59.2114 19.9563 59.2212 19.934L59.347 19.6621C59.3595 19.6342 59.3817 19.6117 59.4095 19.5986C59.4373 19.5856 59.469 19.5828 59.499 19.5908Z" stroke="#808080" stroke-width="2"/>
    <path d="M90.8221 33.5472C90.1652 33.4117 89.9451 33.0244 90.1617 32.3855L91.2256 29.2488C91.2371 29.2157 91.2586 29.187 91.2872 29.1667C91.3159 29.1464 91.3502 29.1354 91.3855 29.1353H96.3121C96.3549 29.1353 96.3966 29.1487 96.4314 29.1738C96.4662 29.1989 96.4923 29.2344 96.506 29.2753L97.714 32.7815C97.8608 33.2057 97.7184 33.4777 97.2869 33.5974L96.4012 33.8429C96.3545 33.8557 96.3134 33.8835 96.284 33.9221C96.2547 33.9608 96.2387 34.0081 96.2387 34.0568V34.7116C96.2387 34.7557 96.2561 34.798 96.287 34.8292C96.318 34.8604 96.36 34.8779 96.4038 34.8779H103.804C103.848 34.8779 103.89 34.8604 103.921 34.8292C103.952 34.798 103.969 34.7557 103.969 34.7116V33.9908C103.969 33.9464 103.952 33.9038 103.921 33.8722C103.89 33.8406 103.848 33.8225 103.804 33.8218C102.308 33.798 101.849 32.9188 101.357 31.67C99.4506 26.8471 97.6014 21.9987 95.8089 17.1248C95.7971 17.0911 95.7737 17.0627 95.7429 17.0448C95.7122 17.0269 95.6761 17.0206 95.6412 17.0271L94.6114 17.2356C94.5672 17.2446 94.526 17.2645 94.4916 17.2936C94.4572 17.3226 94.4308 17.3599 94.4148 17.402C92.5176 22.1703 90.6072 26.9333 88.6837 31.6911C87.5674 34.4528 85.0805 34.4106 83.4217 32.2825C81.4162 29.7109 79.4709 27.0891 77.5858 24.4172C77.5696 24.3939 77.5618 24.3658 77.5637 24.3374C77.5656 24.3091 77.5771 24.2822 77.5963 24.2614C78.3248 23.4764 79.0594 22.6957 79.8002 21.9195C81.8127 19.8178 82.7194 18.6323 85.3268 18.4792C85.3723 18.4765 85.415 18.4561 85.4462 18.4223C85.4774 18.3884 85.4947 18.3436 85.4946 18.297V17.5393C85.4942 17.5185 85.4898 17.4979 85.4816 17.4789C85.4734 17.4598 85.4615 17.4425 85.4467 17.428C85.4318 17.4136 85.4143 17.4022 85.3951 17.3945C85.3759 17.3869 85.3554 17.3832 85.3347 17.3835L78.655 17.3861C78.6091 17.3861 78.5652 17.4045 78.5327 17.4372C78.5003 17.4699 78.4821 17.5142 78.4821 17.5604L78.4847 18.2627C78.4847 18.3052 78.4996 18.3464 78.5268 18.3791C78.5541 18.4119 78.592 18.4342 78.634 18.4422L79.7949 18.6535C80.2544 18.738 80.347 18.9703 80.0727 19.3505C78.9983 20.8378 77.8287 22.2442 76.5638 23.5696C75.8353 24.3353 75.0177 24.9699 74.111 25.4733C74.0956 25.4814 74.0783 25.4854 74.0609 25.4849C74.0435 25.4843 74.0265 25.4794 74.0115 25.4704C73.9965 25.4614 73.9841 25.4487 73.9754 25.4335C73.9666 25.4183 73.9619 25.4011 73.9617 25.3835L73.9695 19.7149C73.9713 19.1322 74.256 18.7864 74.8238 18.6772L75.9926 18.4555C76.0303 18.4481 76.0642 18.4277 76.0886 18.3978C76.113 18.368 76.1263 18.3304 76.1262 18.2918L76.1288 17.5604C76.1288 17.5135 76.1103 17.4685 76.0774 17.4353C76.0445 17.4021 75.9998 17.3835 75.9533 17.3835L68.2332 17.3861C68.1894 17.3861 68.1474 17.4037 68.1165 17.4349C68.0855 17.4661 68.0681 17.5084 68.0681 17.5525L68.0655 18.2601C68.0653 18.2994 68.0787 18.3377 68.1036 18.3684C68.1284 18.3992 68.163 18.4206 68.2018 18.429L69.4386 18.6852C69.9959 18.8013 70.279 19.1463 70.2877 19.7201C70.3611 23.9375 70.3392 28.1479 70.2222 32.3512C70.1881 33.6211 69.1766 33.7531 68.1965 33.8323C68.1616 33.835 68.1289 33.8506 68.1051 33.8761C68.0813 33.9016 68.0681 33.935 68.0681 33.9696V34.7248C68.0681 34.7542 68.0797 34.7824 68.1004 34.8032C68.121 34.824 68.149 34.8356 68.1782 34.8356L76.0188 34.8277C76.0473 34.8277 76.0746 34.8166 76.0947 34.7968C76.1149 34.777 76.1262 34.7501 76.1262 34.7221V33.9723C76.1263 33.9375 76.1134 33.9037 76.0897 33.8775C76.066 33.8512 76.0334 33.8342 75.9978 33.8297C74.9234 33.7003 73.98 33.5314 73.9695 32.3644C73.9521 30.4757 73.9564 28.5721 73.9826 26.6535C73.9833 26.6175 73.998 26.5833 74.0235 26.5581C74.0489 26.5329 74.0832 26.5188 74.1189 26.5188C74.4893 26.5153 74.774 26.6543 74.9732 26.936C76.8268 29.5622 78.6996 32.1734 80.5916 34.7696C80.6177 34.8049 80.6514 34.8336 80.6901 34.8533C80.7288 34.873 80.7713 34.8832 80.8143 34.8832L92.4075 34.8753C92.4506 34.8753 92.4919 34.858 92.5224 34.8273C92.5529 34.7966 92.57 34.755 92.57 34.7116V34.0356C92.5701 33.9997 92.5579 33.9649 92.5355 33.937C92.513 33.9091 92.4817 33.8898 92.4468 33.8825L90.8221 33.5472Z" stroke="#808080" stroke-width="2"/>
    <path d="M130.091 17.0429C118.196 16.8026 117.072 33.7056 128.518 35.2106C129.792 35.3795 130.979 35.3144 132.08 35.0152C141.933 32.3459 140.667 17.2594 130.091 17.0429Z" stroke="#808080" stroke-width="2"/>
    <path d="M21.3574 33.7241C21.546 33.9476 21.5871 33.923 21.4805 33.6502C19.6042 28.8634 20.8464 23.2528 23.9753 19.3954C24.4653 18.7907 25.2331 18.128 25.8044 17.4231C25.8603 17.3544 25.8463 17.3351 25.7624 17.365C19.0592 19.794 16.6692 28.1874 21.3574 33.7241Z" stroke="#808080" stroke-width="2"/>
    <path d="M104.897 18.3631C104.897 18.3859 104.901 18.4086 104.911 18.4295C104.92 18.4503 104.934 18.4688 104.951 18.4837C104.968 18.4986 104.989 18.5094 105.01 18.5155C105.032 18.5216 105.055 18.5227 105.078 18.5188C107.056 18.1518 107.179 19.8073 107.185 21.2145C107.195 24.7842 107.186 28.3547 107.158 31.9261C107.143 33.6555 106.178 33.7532 104.761 33.8456C104.723 33.8482 104.688 33.8653 104.662 33.8932C104.636 33.9211 104.622 33.9579 104.622 33.9961L104.63 34.7089C104.63 34.754 104.649 34.797 104.68 34.8286C104.712 34.8602 104.755 34.8779 104.8 34.8779H117.709C117.754 34.878 117.797 34.8627 117.833 34.8345C117.869 34.8062 117.894 34.7667 117.905 34.7221L119.045 30.2838C119.051 30.261 119.052 30.2371 119.049 30.2137C119.046 30.1903 119.038 30.1678 119.026 30.1474C119.014 30.127 118.998 30.1092 118.98 30.0951C118.961 30.0809 118.939 30.0706 118.917 30.0647L118.112 29.8535C118.073 29.8439 118.032 29.8485 117.997 29.8664C117.961 29.8843 117.933 29.9144 117.918 29.9512C117.478 30.9809 116.888 31.9173 116.149 32.7604C115.222 33.8192 110.927 34.4211 110.921 32.2376C110.907 28.2104 110.901 24.1848 110.903 20.1611C110.903 18.6244 112.004 18.5901 113.144 18.4396C113.179 18.4351 113.212 18.4178 113.236 18.3911C113.259 18.3643 113.272 18.3299 113.272 18.2944V17.5525C113.272 17.5088 113.255 17.4669 113.225 17.4358C113.194 17.4047 113.153 17.3868 113.11 17.3862L105.109 17.3835C105.057 17.3835 105.008 17.4037 104.971 17.4398C104.934 17.4759 104.913 17.5249 104.913 17.5763L104.897 18.3631Z" stroke="#808080" stroke-width="2"/>
    <path d="M40.9405 20.8607C43.1994 27.2026 42.0062 32.7322 37.3609 37.4495C37.3546 37.4561 37.3503 37.464 37.3488 37.4718C37.3474 37.4796 37.3489 37.4867 37.353 37.4917L37.3688 37.5102C37.3743 37.5178 37.385 37.522 37.399 37.522C37.4129 37.522 37.4291 37.5178 37.4447 37.5102C44.0589 34.5003 46.116 26.2627 40.9877 20.8317C40.9265 20.7666 40.9108 20.7762 40.9405 20.8607Z" stroke="#808080" stroke-width="2"/>
    <path d="M26.7483 27.4338C26.7523 27.4153 26.7489 27.396 26.7388 27.3801C26.7287 27.3642 26.7127 27.3529 26.6944 27.3489L24.4626 26.8545C24.4535 26.8525 24.4441 26.8523 24.435 26.8539C24.4258 26.8556 24.4171 26.859 24.4093 26.864C24.4014 26.8691 24.3947 26.8756 24.3894 26.8833C24.384 26.891 24.3803 26.8996 24.3783 26.9088L19.9339 47.2752C19.9299 47.2936 19.9333 47.3129 19.9434 47.3288C19.9535 47.3448 19.9695 47.356 19.9878 47.3601L22.2196 47.8544C22.2287 47.8565 22.2381 47.8566 22.2472 47.855C22.2564 47.8534 22.2651 47.8499 22.2729 47.8449C22.2808 47.8398 22.2875 47.8333 22.2928 47.8256C22.2982 47.8179 22.3019 47.8093 22.3039 47.8001L26.7483 27.4338Z" stroke="#808080" stroke-width="2"/>
    <path d="M37.9852 29.9662C37.9917 29.9361 37.9861 29.9046 37.9696 29.8787C37.953 29.8528 37.927 29.8345 37.8971 29.828L35.7566 29.3577C35.7418 29.3545 35.7266 29.3542 35.7117 29.3569C35.6968 29.3596 35.6825 29.3652 35.6698 29.3735C35.657 29.3817 35.646 29.3924 35.6374 29.4049C35.6287 29.4175 35.6226 29.4316 35.6194 29.4465L31.2282 49.7381C31.2217 49.7682 31.2273 49.7997 31.2439 49.8256C31.2604 49.8515 31.2864 49.8698 31.3163 49.8763L33.4568 50.3466C33.4716 50.3498 33.4869 50.3501 33.5018 50.3474C33.5167 50.3447 33.5309 50.3391 33.5436 50.3308C33.5564 50.3226 33.5674 50.3119 33.576 50.2994C33.5847 50.2868 33.5908 50.2727 33.594 50.2578L37.9852 29.9662Z" stroke="#808080" stroke-width="2"/>
    <path d="M21.6849 63.0521C20.4026 62.9729 19.1221 63.1586 17.8432 63.6092C17.5218 63.7219 17.4982 63.8794 17.7725 64.0818C18.6451 64.7287 22.6571 64.9531 23.8442 65.0139C29.0608 65.2832 34.2748 65.2577 39.4861 64.9373C41.3048 64.8238 43.4641 64.7393 45.1753 64.0845C45.4513 63.9806 45.4618 63.8539 45.2067 63.7043C43.8021 62.8779 40.3168 62.7881 38.6554 62.7353C38.5701 62.7319 38.4859 62.755 38.4143 62.8013L38.1942 62.9413" stroke="#E3E3E3" stroke-width="2"/>
    <path d="M38.1942 62.9413L32.1592 52.4093C32.1485 52.3905 32.1342 52.3741 32.1172 52.3611C32.1002 52.3481 32.0808 52.3387 32.0602 52.3335C32.0396 52.3283 32.0182 52.3274 31.9973 52.3309C31.9765 52.3344 31.9567 52.3422 31.939 52.3538L31.0874 52.903C31.0515 52.9257 31.0257 52.9616 31.0155 53.0034C31.0053 53.0452 31.0113 53.0896 31.0323 53.1274L37.1906 64.0159" stroke="#808080" stroke-width="2"/>
    <path d="M37.1905 64.0158C36.6105 63.8609 36.29 63.5107 36.2288 62.965C36.2181 62.8667 36.1726 62.7757 36.1009 62.7087C36.0291 62.6417 35.9358 62.6033 35.8383 62.6007C33.3261 62.5232 30.8367 62.5267 28.3699 62.6112C27.8143 62.6306 27.2326 62.6499 26.6246 62.6693" stroke="#E3E3E3" stroke-width="2"/>
    <path d="M26.6246 62.6693L32.4369 35.9815C32.561 35.4165 32.3434 35.0698 31.7844 34.9413C30.8183 34.7177 29.8155 34.4924 28.776 34.2654C27.8562 34.0647 27.5811 34.3763 27.3898 35.2475C25.4227 44.2561 23.4564 53.2638 21.491 62.2706C21.4561 62.4273 21.5207 62.6878 21.6849 63.0522" stroke="#808080" stroke-width="2"/>
    <path d="M26.6246 62.6693C26.6019 63.6726 26.1127 64.0898 25.1571 63.9208C23.8696 63.6937 22.7122 63.4042 21.6849 63.0522" stroke="#646464" stroke-width="2"/>
    <path d="M38.1942 62.9413C38.2361 63.1754 38.3436 63.369 38.5165 63.5221C38.5487 63.5504 38.5863 63.5715 38.6269 63.5842C38.6675 63.597 38.7103 63.601 38.7524 63.596C39.418 63.5168 40.0775 63.5406 40.7309 63.6673C40.7509 63.671 40.7697 63.6795 40.7857 63.6923C40.8016 63.705 40.8141 63.7216 40.8222 63.7404C40.8302 63.7592 40.8335 63.7798 40.8318 63.8002C40.83 63.8206 40.8233 63.8403 40.8121 63.8574C40.6077 64.1663 37.3242 64.0238 37.1906 64.0158" stroke="#646464" stroke-width="2"/>
    <path d="M199.029 39.4218C199.245 39.5063 199.439 39.4983 199.61 39.398C199.627 39.3885 199.641 39.3751 199.651 39.3589C199.661 39.3427 199.667 39.3242 199.668 39.3052C199.669 39.2861 199.666 39.267 199.658 39.2496C199.65 39.2322 199.638 39.217 199.623 39.2053C199.484 39.0961 199.402 38.9104 199.38 38.6482C199.343 38.1993 199.455 38.158 199.715 38.5241C200.351 39.42 200.821 39.7043 201.125 39.3769" stroke="#808080" stroke-width="2"/>
    <path d="M201.125 39.3769C201.689 38.5373 201.674 37.8174 201.078 37.2172C200.681 36.8176 200.225 36.6337 199.71 36.6654C197.262 36.8185 197.663 40.7789 200.391 40.0739C200.514 40.0405 200.599 39.9894 200.648 39.9208C200.713 39.8346 200.693 39.8082 200.59 39.8416C200.044 40.0299 199.517 40.0027 199.01 39.7597C198.971 39.7408 198.939 39.7085 198.921 39.6684C198.903 39.6284 198.899 39.5831 198.911 39.5406C198.93 39.4702 198.969 39.4306 199.029 39.4218" stroke="#E3E3E3" stroke-width="2"/>
    <path d="M201.125 39.3769L200.994 39.3558" stroke="#646464" stroke-width="2"/>
    <path d="M200.994 39.3558C202.047 38.0436 200.488 36.4568 199.031 37.0429C199.003 37.0542 198.98 37.0756 198.967 37.103C198.954 37.1303 198.952 37.1617 198.96 37.1908C198.969 37.2224 198.992 37.2471 199.029 37.2647" stroke="#E3E3E3" stroke-width="2"/>
    <path d="M199.029 37.2647L198.953 37.4521" stroke="#646464" stroke-width="2"/>
    <path d="M198.953 37.4522C198.874 37.3694 198.793 37.3756 198.709 37.4706C198.153 38.1043 198.15 38.7344 198.698 39.3611C198.784 39.4596 198.872 39.4579 198.963 39.3558" stroke="#E3E3E3" stroke-width="2"/>
    <path d="M198.963 39.3558L199.029 39.4218" stroke="#646464" stroke-width="2"/>
    <path d="M198.963 39.3558C199.232 38.7186 199.229 38.0841 198.953 37.4521" stroke="#808080" stroke-width="2"/>
    <path d="M200.994 39.3558C200.639 39.2062 200.35 38.9624 200.127 38.6244C200.109 38.5991 200.101 38.5682 200.104 38.537C200.107 38.5058 200.121 38.4761 200.142 38.4528L200.522 38.0409C200.56 38.0003 200.581 37.9464 200.58 37.8907C200.579 37.8349 200.556 37.7818 200.517 37.7426L200.221 37.4442C200.155 37.3778 200.068 37.3375 199.975 37.3307L199.029 37.2647" stroke="#808080" stroke-width="2"/>
    <path d="M104.019 42.0885C104.045 46.5435 104.041 50.9985 104.006 55.4535C103.993 56.9215 102.774 57.0112 101.679 57.0852C101.643 57.0872 101.609 57.1034 101.584 57.1304C101.559 57.1574 101.545 57.1932 101.545 57.2304V57.9459C101.545 57.99 101.563 58.0323 101.594 58.0635C101.625 58.0947 101.667 58.1122 101.71 58.1122H110.282C110.302 58.1122 110.322 58.1082 110.34 58.1003C110.359 58.0924 110.376 58.0808 110.39 58.0663C110.404 58.0518 110.414 58.0345 110.422 58.0157C110.429 57.9968 110.432 57.9767 110.431 57.9564L110.395 57.2198C110.393 57.1831 110.378 57.1483 110.353 57.1223C110.327 57.0964 110.292 57.0812 110.256 57.0799C108.93 57.0324 107.782 56.8792 107.777 55.2079C107.766 50.8128 107.765 46.4211 107.772 42.033C107.772 42.0156 107.775 41.9983 107.782 41.9823C107.789 41.9662 107.799 41.9517 107.811 41.9396C107.824 41.9275 107.838 41.9181 107.855 41.9119C107.871 41.9057 107.888 41.9029 107.905 41.9036C109.168 41.9564 111.037 41.5789 111.823 42.8753C112.267 43.6057 112.599 44.3864 112.821 45.2172C112.832 45.2569 112.857 45.2914 112.891 45.3142C112.926 45.337 112.967 45.3466 113.007 45.3413L113.741 45.2383C113.779 45.2324 113.814 45.2129 113.838 45.1836C113.862 45.1543 113.874 45.1173 113.872 45.0799L113.615 40.169C113.613 40.1264 113.598 40.0856 113.572 40.0521C113.546 40.0185 113.511 39.9939 113.471 39.9815C113.09 39.8654 112.793 39.9507 112.578 40.2376C112.387 40.4911 112.134 40.6178 111.818 40.6178L99.9598 40.6205C99.8565 40.6204 99.755 40.5936 99.665 40.5428C99.5751 40.4919 99.4997 40.4187 99.4462 40.33C99.2226 39.9657 98.8881 39.8522 98.4426 39.9894C98.4136 39.999 98.3881 40.0168 98.369 40.0407C98.35 40.0646 98.3382 40.0936 98.3351 40.1241L97.9132 45.2462C97.9114 45.2646 97.9134 45.2832 97.9192 45.3008C97.9249 45.3184 97.9343 45.3345 97.9466 45.3482C97.959 45.3619 97.9741 45.3728 97.9909 45.3803C98.0077 45.3877 98.0259 45.3915 98.0443 45.3914H98.7675C98.8073 45.3915 98.846 45.379 98.8784 45.3558C98.9108 45.3327 98.9353 45.2999 98.9483 45.2621C100.038 42.033 100.599 41.8456 103.888 41.9512C103.923 41.9525 103.957 41.9676 103.981 41.9932C104.005 42.0188 104.019 42.0529 104.019 42.0885Z" stroke="#808080" stroke-width="2"/>
    <path d="M153.088 42.0251C153.127 49.2999 153.128 53.864 153.093 55.7175C153.07 56.8581 151.802 57.0059 150.746 57.0825C150.71 57.0852 150.676 57.1014 150.652 57.1278C150.628 57.1543 150.614 57.189 150.614 57.2251V57.9802C150.614 58.0152 150.628 58.0488 150.653 58.0735C150.677 58.0983 150.711 58.1122 150.746 58.1122H159.357C159.377 58.1123 159.397 58.1081 159.415 58.1C159.434 58.0919 159.45 58.0801 159.464 58.0652C159.478 58.0504 159.489 58.0328 159.495 58.0136C159.502 57.9944 159.505 57.9741 159.503 57.9538L159.448 57.2172C159.445 57.1824 159.43 57.1498 159.405 57.1252C159.38 57.1006 159.347 57.0854 159.312 57.0825C157.727 56.9531 156.864 56.837 156.851 54.9386C156.822 50.6772 156.826 46.4079 156.864 42.1307C156.865 42.0937 156.879 42.0583 156.904 42.0314C156.928 42.0045 156.962 41.9881 156.998 41.9855C160.072 41.7056 161.06 42.1043 161.896 45.1934C161.906 45.2317 161.93 45.2652 161.963 45.2878C161.996 45.3105 162.036 45.321 162.077 45.3175L162.826 45.2409C162.865 45.2376 162.901 45.2192 162.927 45.1897C162.953 45.1602 162.966 45.1218 162.965 45.0825L162.721 40.1452C162.719 40.1073 162.705 40.071 162.682 40.0412C162.658 40.0114 162.626 39.9897 162.59 39.9789C162.202 39.8627 161.887 39.9481 161.644 40.235C161.426 40.492 161.15 40.6205 160.816 40.6205C156.887 40.6205 152.962 40.6205 149.042 40.6205C148.764 40.6187 148.529 40.4427 148.335 40.0924C148.312 40.0523 148.278 40.019 148.238 39.9959C148.198 39.9727 148.153 39.9605 148.107 39.9604H147.548C147.517 39.9603 147.486 39.9725 147.463 39.9946C147.44 40.0166 147.425 40.0468 147.423 40.0792L147.011 45.2277C147.01 45.2466 147.012 45.2656 147.018 45.2835C147.025 45.3014 147.034 45.3178 147.047 45.3317C147.06 45.3456 147.076 45.3567 147.093 45.3642C147.11 45.3718 147.129 45.3756 147.148 45.3756L147.889 45.3729C147.926 45.3731 147.961 45.3615 147.991 45.3398C148.022 45.318 148.044 45.2871 148.057 45.2515C148.39 44.2455 148.812 42.8383 149.758 42.2548C150.523 41.7795 152.027 41.9327 152.955 41.8957C152.972 41.895 152.989 41.8978 153.005 41.904C153.022 41.9102 153.036 41.9196 153.049 41.9317C153.061 41.9438 153.071 41.9583 153.078 41.9743C153.085 41.9904 153.088 42.0076 153.088 42.0251Z" stroke="#808080" stroke-width="2"/>
    <path d="M91.776 52.4779L92.9631 55.9287C93.1325 56.4198 92.9674 56.734 92.4678 56.8713L91.6502 57.0931C91.6132 57.103 91.5806 57.1249 91.5574 57.1555C91.5342 57.1861 91.5216 57.2236 91.5218 57.2621V57.9459C91.5218 57.99 91.5392 58.0323 91.5701 58.0635C91.6011 58.0947 91.6431 58.1122 91.6869 58.1122H99.0898C99.1336 58.1122 99.1756 58.0947 99.2066 58.0635C99.2375 58.0323 99.2549 57.99 99.2549 57.9459L99.2471 57.2092C99.2467 57.1878 99.2422 57.1665 99.2339 57.1468C99.2255 57.1271 99.2135 57.1092 99.1984 57.0943C99.1833 57.0793 99.1655 57.0676 99.146 57.0596C99.1264 57.0517 99.1056 57.0478 99.0846 57.0482C97.3315 57.0667 96.8388 55.567 96.333 54.2627C94.5546 49.6581 92.8102 45.0376 91.0999 40.4013C91.0857 40.3636 91.059 40.3321 91.0245 40.3123C90.99 40.2925 90.9499 40.2857 90.9112 40.2931L89.8761 40.4885C89.8375 40.4958 89.8014 40.5127 89.7712 40.5376C89.7409 40.5625 89.7175 40.5946 89.7031 40.631C87.9561 45.0315 86.1977 49.4275 84.428 53.8191C83.6628 55.7175 83.3274 56.9109 81.3096 57.0799C81.2716 57.0832 81.2362 57.1008 81.2105 57.1291C81.1848 57.1575 81.1706 57.1946 81.1707 57.233V57.9802C81.1707 58.0152 81.1845 58.0488 81.2091 58.0735C81.2337 58.0983 81.267 58.1122 81.3017 58.1122H87.6879C87.7317 58.1122 87.7737 58.095 87.8047 58.0643C87.8356 58.0336 87.853 57.9919 87.853 57.9485L87.8557 57.2726C87.8557 57.2272 87.8385 57.1834 87.8073 57.1501C87.7762 57.1168 87.7336 57.0964 87.6879 57.0931C86.949 57.0297 85.319 56.9083 85.4212 55.8627C85.4771 55.2889 85.8483 54.1712 86.5349 52.5096C86.5528 52.4681 86.5821 52.4327 86.6194 52.4078C86.6566 52.383 86.7001 52.3697 86.7446 52.3696H91.6266C91.6593 52.3696 91.6913 52.38 91.7181 52.3994C91.7448 52.4188 91.7651 52.4463 91.776 52.4779Z" stroke="#808080" stroke-width="2"/>
    <path d="M141.044 52.4779L142.242 55.9815C142.396 56.4321 142.245 56.7217 141.789 56.8502L140.913 57.0984C140.877 57.1082 140.845 57.1299 140.822 57.16C140.8 57.1901 140.787 57.2269 140.788 57.2647V57.9459C140.788 57.99 140.805 58.0323 140.836 58.0635C140.867 58.0947 140.909 58.1122 140.953 58.1122H148.356C148.399 58.1122 148.441 58.0947 148.472 58.0635C148.503 58.0323 148.521 57.99 148.521 57.9459L148.513 57.2092C148.512 57.1877 148.508 57.1665 148.499 57.1468C148.491 57.1271 148.479 57.1092 148.463 57.0943C148.448 57.0793 148.43 57.0675 148.41 57.0596C148.39 57.0517 148.369 57.0478 148.348 57.0482C146.595 57.0667 146.107 55.567 145.601 54.2627C143.881 49.8077 142.141 45.2022 140.384 40.4462C140.365 40.3942 140.328 40.3507 140.28 40.3232C140.232 40.2957 140.176 40.286 140.122 40.2957L139.147 40.4805C139.108 40.4878 139.072 40.5047 139.042 40.5297C139.012 40.5546 138.989 40.5867 138.974 40.6231C137.215 45.0218 135.454 49.4196 133.691 53.8165C132.929 55.7175 132.596 56.9135 130.575 57.0852C130.538 57.0878 130.502 57.1049 130.476 57.1328C130.451 57.1607 130.436 57.1975 130.436 57.2356V57.9802C130.436 58.0152 130.45 58.0488 130.475 58.0735C130.499 58.0983 130.533 58.1122 130.567 58.1122H136.954C136.997 58.1122 137.039 58.095 137.07 58.0643C137.101 58.0336 137.119 57.9919 137.119 57.9485L137.121 57.2726C137.121 57.2272 137.104 57.1834 137.073 57.1501C137.042 57.1168 136.999 57.0964 136.954 57.0931C136.215 57.0297 134.585 56.9083 134.687 55.8627C134.743 55.2889 135.114 54.1712 135.801 52.5096C135.819 52.4681 135.848 52.4327 135.885 52.4078C135.922 52.383 135.966 52.3697 136.01 52.3696H140.895C140.928 52.3696 140.96 52.38 140.986 52.3994C141.013 52.4188 141.033 52.4463 141.044 52.4779Z" stroke="#808080" stroke-width="2"/>
    <path d="M76.7132 53.0957C76.6486 53.2489 76.5874 53.2471 76.5298 53.0904L72.7274 42.6878C72.5772 42.2759 72.7152 42.0233 73.1415 41.9301L74.3495 41.6634C74.3896 41.6544 74.4254 41.6317 74.4512 41.5991C74.4769 41.5664 74.4909 41.5258 74.491 41.4839L74.4832 40.7895C74.4825 40.7444 74.4642 40.7014 74.4324 40.6698C74.4005 40.6382 74.3576 40.6205 74.3128 40.6205H66.4644C66.4206 40.6205 66.3786 40.6377 66.3476 40.6684C66.3167 40.6991 66.2993 40.7408 66.2993 40.7842L66.2967 41.5155C66.2965 41.5623 66.3141 41.6075 66.3457 41.6418C66.3773 41.6761 66.4206 41.697 66.467 41.7004C67.6445 41.7831 68.4708 42.4291 68.946 43.6383C70.8537 48.4964 72.7012 53.3809 74.4884 58.2918C74.5045 58.336 74.5338 58.3743 74.5723 58.4012C74.6107 58.4281 74.6565 58.4424 74.7033 58.4423L75.8773 58.4396C75.9175 58.4395 75.9568 58.4273 75.9899 58.4047C76.0231 58.3821 76.0487 58.3502 76.0633 58.3129C77.4365 54.8629 79.4167 49.9723 82.0041 43.6409C82.5072 42.4088 83.399 41.7716 84.6796 41.7294C84.7022 41.7287 84.7244 41.7236 84.745 41.7143C84.7656 41.705 84.7841 41.6917 84.7995 41.6752C84.8148 41.6588 84.8267 41.6394 84.8345 41.6184C84.8423 41.5973 84.8457 41.5749 84.8447 41.5525L84.8211 40.7974C84.8197 40.75 84.8001 40.705 84.7663 40.672C84.7326 40.6389 84.6874 40.6205 84.6403 40.6205H78.6472C78.6041 40.6205 78.5627 40.6377 78.5323 40.6684C78.5018 40.6991 78.4847 40.7408 78.4847 40.7842V41.5182C78.4849 41.5536 78.4967 41.5879 78.5181 41.6152C78.5395 41.6426 78.5694 41.6614 78.6026 41.6687L80.057 41.9855C80.651 42.1158 80.8449 42.4687 80.6388 43.0442C79.4298 46.4326 78.1213 49.7831 76.7132 53.0957Z" stroke="#808080" stroke-width="2"/>
    <path d="M125.853 53.1565C125.789 53.3448 125.723 53.3457 125.657 53.1591L121.802 42.6403C121.659 42.2495 121.79 42.0128 122.195 41.9301L123.437 41.6792C123.471 41.6725 123.502 41.6541 123.524 41.6271C123.546 41.6001 123.558 41.5663 123.558 41.5314V40.7842C123.558 40.7408 123.541 40.6991 123.51 40.6684C123.48 40.6377 123.438 40.6205 123.395 40.6205H115.578C115.53 40.6205 115.484 40.6396 115.449 40.6737C115.415 40.7078 115.395 40.7541 115.395 40.8027L115.382 41.5446C115.381 41.5691 115.386 41.5934 115.395 41.6161C115.404 41.6389 115.417 41.6595 115.434 41.677C115.45 41.6944 115.471 41.7083 115.493 41.7177C115.515 41.7272 115.538 41.732 115.562 41.732C116.7 41.7444 117.467 42.2346 117.863 43.2027C119.282 46.6684 121.19 51.707 123.589 58.3182C123.602 58.3546 123.626 58.3861 123.657 58.4083C123.689 58.4305 123.726 58.4424 123.765 58.4423H124.975C125.013 58.4424 125.05 58.4312 125.081 58.41C125.112 58.3888 125.137 58.3587 125.151 58.3235C126.893 53.9353 128.648 49.5525 130.416 45.1749C131.042 43.6225 131.66 41.7347 133.696 41.7558C133.744 41.7566 133.79 41.7422 133.829 41.7146C133.867 41.6871 133.896 41.6479 133.911 41.6027C133.999 41.3351 134.016 41.0552 133.964 40.7631C133.956 40.7229 133.935 40.6866 133.903 40.6606C133.872 40.6345 133.832 40.6203 133.791 40.6205H127.682C127.665 40.6205 127.648 40.6239 127.633 40.6306C127.617 40.6372 127.603 40.647 127.591 40.6593C127.579 40.6716 127.569 40.6862 127.563 40.7022C127.557 40.7182 127.554 40.7353 127.554 40.7525L127.557 41.2198C127.56 41.5648 127.732 41.7567 128.073 41.7954C129.627 41.9697 129.973 42.3815 129.412 43.9287C128.293 47.0258 126.901 50.0489 125.853 53.1565Z" stroke="#808080" stroke-width="2"/>
    <path d="M170.939 49.8746C171.83 49.8535 174.443 49.5894 174.967 50.4C175.192 50.7485 175.372 51.2977 175.507 52.0475C175.514 52.085 175.533 52.1189 175.563 52.1431C175.592 52.1672 175.629 52.1802 175.667 52.1795L176.482 52.1505C176.52 52.1491 176.556 52.1329 176.582 52.1054C176.608 52.0778 176.623 52.0409 176.623 52.0026V46.2653C176.623 46.2212 176.606 46.1789 176.576 46.1477C176.545 46.1165 176.504 46.099 176.461 46.099H175.661C175.616 46.0989 175.572 46.116 175.539 46.147C175.506 46.1779 175.486 46.2203 175.483 46.2653C175.427 47.0803 175.109 47.7624 174.529 48.3115C174.455 48.3798 174.359 48.4191 174.259 48.4224L170.968 48.4964C170.945 48.4971 170.923 48.4931 170.901 48.4846C170.88 48.4762 170.861 48.4635 170.844 48.4472C170.828 48.431 170.815 48.4115 170.806 48.39C170.797 48.3685 170.792 48.3454 170.792 48.3221L170.795 42.3498C170.795 42.2443 170.836 42.143 170.91 42.0679C170.983 41.9928 171.083 41.9499 171.188 41.9485C174.236 41.901 175.958 41.3545 176.896 44.9954C176.905 45.0317 176.927 45.0634 176.958 45.0843C176.989 45.1052 177.026 45.114 177.063 45.1089L177.85 44.998C177.897 44.9914 177.94 44.9673 177.97 44.9306C178 44.8939 178.015 44.8472 178.012 44.8L177.734 40.7445C177.732 40.7095 177.717 40.6766 177.692 40.6525C177.666 40.6285 177.633 40.6151 177.598 40.6152L165.122 40.6231C165.079 40.6231 165.037 40.6403 165.007 40.671C164.976 40.7017 164.959 40.7434 164.959 40.7868L164.967 41.6211C164.967 41.64 164.971 41.6586 164.979 41.6758C164.987 41.6929 164.999 41.7082 165.013 41.7207C165.028 41.7331 165.044 41.7424 165.063 41.748C165.081 41.7536 165.1 41.7554 165.119 41.7531C166.644 41.5472 167.066 42.4581 167.087 43.8363C167.152 47.6576 167.151 51.479 167.084 55.3003C167.053 56.9663 166.049 56.9267 164.634 57.1168C164.598 57.1219 164.564 57.14 164.54 57.1677C164.516 57.1954 164.503 57.2308 164.503 57.2673V57.9802C164.503 58.0152 164.517 58.0488 164.542 58.0735C164.566 58.0983 164.6 58.1122 164.634 58.1122H178.237C178.282 58.1123 178.325 58.0973 178.361 58.0695C178.396 58.0417 178.421 58.0028 178.431 57.9591L179.453 53.7082C179.465 53.6621 179.457 53.6133 179.433 53.5723C179.409 53.5314 179.37 53.5015 179.325 53.4891L178.586 53.2937C178.546 53.2827 178.504 53.2865 178.467 53.3045C178.43 53.3224 178.4 53.3533 178.384 53.3914C177.902 54.4845 176.649 56.829 175.365 56.8475C174.039 56.8634 170.832 57.4891 170.806 55.4693C170.783 53.651 170.783 51.831 170.806 50.0092C170.806 49.9737 170.821 49.9399 170.845 49.9148C170.87 49.8897 170.904 49.8753 170.939 49.8746Z" stroke="#808080" stroke-width="2"/>
    <path d="M189.17 48.9083L185.976 42.6931C185.756 42.2654 185.881 42.0031 186.351 41.9063L187.38 41.6951C187.414 41.6883 187.444 41.6702 187.465 41.6437C187.487 41.6172 187.498 41.5841 187.498 41.5498V40.7525C187.498 40.7175 187.484 40.6839 187.46 40.6591C187.435 40.6344 187.402 40.6205 187.367 40.6205H179.768C179.733 40.6205 179.7 40.6344 179.675 40.6591C179.651 40.6839 179.637 40.7175 179.637 40.7525V41.5762C179.637 41.6125 179.651 41.6473 179.676 41.6734C179.702 41.6995 179.736 41.7148 179.773 41.7162C180.758 41.7461 181.494 42.1571 181.979 42.9492C183.15 44.8625 184.424 47.1683 185.803 49.8667C186.539 51.3083 186.309 53.9116 186.175 55.4984C186.06 56.8634 185.42 56.8581 184.275 57.035C184.17 57.0513 184.075 57.1043 184.006 57.1846C183.937 57.265 183.898 57.3673 183.898 57.4733L183.895 57.9802C183.895 57.9974 183.898 58.0145 183.904 58.0305C183.91 58.0465 183.92 58.0611 183.932 58.0734C183.944 58.0857 183.958 58.0955 183.974 58.1021C183.989 58.1088 184.006 58.1122 184.023 58.1122H192.249C192.293 58.1122 192.335 58.0947 192.366 58.0635C192.397 58.0323 192.414 57.99 192.414 57.9459L192.407 57.1776C192.406 57.1587 192.402 57.1401 192.394 57.1229C192.387 57.1057 192.376 57.0903 192.362 57.0774C192.348 57.0646 192.332 57.0547 192.315 57.0483C192.297 57.0419 192.278 57.0392 192.26 57.0403C191.489 57.0808 190.817 56.8651 190.242 56.3934C190.178 56.3411 190.138 56.2661 190.129 56.1848C189.933 54.3446 189.613 51.0337 190.452 49.3677C191.093 48.1003 192.108 46.2108 193.497 43.699C194.181 42.4616 195.171 41.8015 196.466 41.7188C196.503 41.7168 196.539 41.7003 196.564 41.6728C196.59 41.6453 196.605 41.6088 196.605 41.571V40.7604C196.604 40.7224 196.589 40.6861 196.562 40.6594C196.536 40.6328 196.5 40.6178 196.463 40.6178L190.512 40.6205C190.477 40.6205 190.444 40.6344 190.419 40.6591C190.395 40.6839 190.381 40.7175 190.381 40.7525V41.5736C190.381 41.6097 190.394 41.6444 190.419 41.6709C190.443 41.6973 190.476 41.7135 190.512 41.7162C191.269 41.7716 192.716 41.967 192.134 43.1604C191.199 45.0808 190.245 46.9967 189.272 48.9083C189.239 48.9751 189.205 48.9751 189.17 48.9083Z" stroke="#808080" stroke-width="2"/>
    <path d="M38.8493 21.7056C38.8493 20.0649 38.2025 18.4915 37.051 17.3313C35.8996 16.1712 34.3379 15.5195 32.7095 15.5195C31.0811 15.5195 29.5194 16.1712 28.3679 17.3313C27.2165 18.4915 26.5696 20.0649 26.5696 21.7056C26.5696 23.3463 27.2165 24.9197 28.3679 26.0799C29.5194 27.24 31.0811 27.8917 32.7095 27.8917C34.3379 27.8917 35.8996 27.24 37.051 26.0799C38.2025 24.9197 38.8493 23.3463 38.8493 21.7056Z" stroke="#805C14" stroke-width="2"/>
    <path d="M91.7838 27.5591C91.7792 27.5713 91.7776 27.5844 91.779 27.5974C91.7805 27.6103 91.785 27.6227 91.7921 27.6336C91.7993 27.6444 91.809 27.6534 91.8203 27.6597C91.8316 27.6661 91.8442 27.6696 91.8572 27.67L95.7932 27.6964C95.8064 27.6964 95.8193 27.6932 95.831 27.687C95.8426 27.6809 95.8526 27.672 95.8601 27.661C95.8676 27.6501 95.8723 27.6376 95.8739 27.6244C95.8755 27.6112 95.8739 27.5979 95.8692 27.5855L93.9379 22.3261C93.932 22.3105 93.9216 22.2971 93.9081 22.2877C93.8945 22.2782 93.8784 22.2732 93.8619 22.2732C93.8454 22.2732 93.8293 22.2782 93.8157 22.2877C93.8021 22.2971 93.7917 22.3105 93.7859 22.3261L91.7838 27.5591Z" stroke="#808080" stroke-width="2"/>
    <path d="M133.702 21.6185C132.106 17.262 126.755 17.0561 125.332 21.7479C124.276 25.2277 124.48 31.464 128.078 33.5604C128.953 34.0691 129.872 34.2081 130.835 33.9776C135.536 32.8475 134.852 24.7657 133.702 21.6185Z" stroke="#808080" stroke-width="2"/>
    <path d="M199.487 37.5762L199.406 38.1069C199.399 38.1523 199.41 38.1986 199.437 38.236C199.464 38.2734 199.505 38.2991 199.55 38.3076C199.742 38.341 199.905 38.2961 200.037 38.1729C200.073 38.139 200.101 38.097 200.117 38.0504C200.134 38.0038 200.14 37.9538 200.133 37.9047C200.127 37.8555 200.11 37.8085 200.082 37.7674C200.054 37.7264 200.018 37.6926 199.975 37.6686L199.655 37.4917C199.639 37.4831 199.621 37.4785 199.602 37.4783C199.584 37.4781 199.566 37.4823 199.549 37.4906C199.533 37.4988 199.519 37.5109 199.508 37.5258C199.497 37.5407 199.49 37.558 199.487 37.5762Z" stroke="#808080" stroke-width="2"/>
    <path d="M87.0643 50.7881C87.0597 50.8003 87.058 50.8134 87.0595 50.8264C87.0609 50.8393 87.0654 50.8518 87.0726 50.8626C87.0798 50.8735 87.0894 50.8824 87.1007 50.8887C87.1121 50.8951 87.1247 50.8986 87.1376 50.899L91.071 50.9333C91.0844 50.9338 91.0977 50.9309 91.1097 50.9249C91.1217 50.9189 91.132 50.9101 91.1398 50.8991C91.1476 50.8881 91.1526 50.8754 91.1543 50.862C91.156 50.8486 91.1544 50.835 91.1497 50.8224L89.2288 45.563C89.2233 45.5474 89.2131 45.5338 89.1997 45.5241C89.1863 45.5144 89.1702 45.5091 89.1537 45.5088C89.1372 45.5085 89.121 45.5133 89.1073 45.5225C89.0935 45.5317 89.0829 45.5449 89.0768 45.5604L87.0643 50.7881Z" stroke="#808080" stroke-width="2"/>
    <path d="M136.338 50.7855C136.334 50.798 136.332 50.8115 136.334 50.8247C136.335 50.838 136.34 50.8507 136.347 50.8618C136.355 50.8729 136.365 50.882 136.376 50.8885C136.388 50.895 136.401 50.8986 136.414 50.899L140.329 50.9333C140.342 50.9332 140.355 50.9299 140.367 50.9237C140.379 50.9176 140.389 50.9087 140.396 50.8979C140.404 50.8871 140.409 50.8747 140.411 50.8616C140.413 50.8484 140.412 50.835 140.408 50.8224L138.497 45.5525C138.491 45.5363 138.481 45.5223 138.467 45.5125C138.453 45.5027 138.436 45.4974 138.419 45.4974C138.402 45.4974 138.385 45.5027 138.371 45.5125C138.357 45.5223 138.346 45.5363 138.34 45.5525L136.338 50.7855Z" stroke="#808080" stroke-width="2"/>
    <path d="M19.4234 7.17096L22.2798 7.77822C22.2988 7.78229 22.3168 7.79011 22.3327 7.80122C22.3487 7.81234 22.3623 7.82653 22.3728 7.84298C22.3832 7.85943 22.3904 7.87781 22.3938 7.89706C22.3971 7.91631 22.3967 7.93604 22.3925 7.95512L21.8841 10.2469C21.881 10.2624 21.8748 10.2771 21.866 10.2902C21.8572 10.3033 21.8458 10.3145 21.8326 10.3231C21.8195 10.3317 21.8047 10.3375 21.7892 10.3403C21.7738 10.3431 21.7579 10.3428 21.7426 10.3393L18.9203 9.69241C18.8812 9.68312 18.8401 9.68685 18.8033 9.70303C18.7664 9.71921 18.7358 9.74698 18.7159 9.78218L18.5325 10.1122C18.4329 10.29 18.3612 10.2794 18.3176 10.0805L18.273 9.88251C18.263 9.83523 18.2396 9.79187 18.2056 9.75768C18.1717 9.72348 18.1287 9.6999 18.0817 9.68977L10.228 7.94984C10.1917 7.94238 10.1543 7.94276 10.1181 7.95096C10.082 7.95915 10.048 7.97496 10.0184 7.99736L9.76419 8.1901C9.5825 8.3274 9.51262 8.28339 9.55455 8.05809C9.63841 7.60396 9.44449 7.43147 8.9728 7.5406C8.9466 7.5468 8.91933 7.54677 8.89315 7.54049C8.86698 7.53421 8.84261 7.52186 8.822 7.50443C8.80139 7.487 8.78511 7.46496 8.77443 7.44007C8.76376 7.41518 8.759 7.38813 8.76053 7.36106C8.80246 6.61475 8.93873 5.88779 9.16934 5.1802C9.18453 5.13454 9.20882 5.09249 9.24068 5.05667C9.27255 5.02084 9.31132 4.992 9.35457 4.97194C9.39783 4.95189 9.44465 4.94104 9.49213 4.94007C9.5396 4.93911 9.58672 4.94805 9.63055 4.96634L9.96073 5.10363C9.99205 5.11676 10.027 5.11812 10.0592 5.10745C10.0915 5.09679 10.1188 5.07482 10.1363 5.04555L10.3355 4.7208C10.4281 4.5659 10.5041 4.5747 10.5635 4.7472L10.6185 4.90826C10.6328 4.95019 10.6576 4.98776 10.6907 5.01734C10.7237 5.04693 10.7638 5.06755 10.8072 5.07723C13.122 5.6 15.4385 6.11134 17.7568 6.61122C18.2363 6.7142 18.6294 7.03895 19.109 6.62443C19.2313 6.51882 19.2941 6.54698 19.2976 6.70892L19.3029 7.02047C19.3027 7.05569 19.3146 7.0899 19.3366 7.11731C19.3586 7.14473 19.3892 7.16367 19.4234 7.17096Z" fill="black"/>
    <path d="M28.4223 15.604L26.8605 17.1327L22.6938 11.9234C22.6669 11.8897 22.6479 11.8502 22.6384 11.8081C22.6289 11.766 22.629 11.7224 22.6388 11.6805L23.1498 9.44952C23.176 9.32807 23.2293 9.31574 23.3097 9.41255L28.4223 15.604Z" fill="black"/>
    <path d="M35.4425 14.9545L33.3408 14.3868C34.1567 14.3287 34.9227 14.488 35.639 14.8647C35.7246 14.9104 35.7194 14.9368 35.6233 14.9439L35.4425 14.9545Z" fill="#FFB727"/>
    <path d="M33.3406 14.3868L35.4423 14.9545L35.5733 15.0205L36.6215 15.5934L36.687 15.6145L37.6593 16.3961L37.8008 16.5386L38.8385 17.7822L39.0455 18.1888L39.8212 20.4885C40.0081 21.4126 39.9863 22.3366 39.7557 23.2607L39.4491 23.9868L39.1582 24.9267C38.6341 25.7417 38.0287 26.481 37.3422 27.1446L35.5078 28.3327L35.2353 28.4093L33.1493 28.8607L31.184 28.6627L30.0047 28.2878L29.6116 28.1347C27.5222 26.9677 26.1936 25.211 25.6258 22.8647C25.4756 21.7734 25.5411 20.6953 25.8224 19.6304L26.5876 17.8482L26.8706 17.4522L28.6945 15.6805L29.0875 15.3954L31.0503 14.5716C31.1656 14.5241 31.1612 14.4959 31.0372 14.4871L30.7909 14.4713L33.3406 14.3868ZM38.849 21.7056C38.849 20.065 38.2021 18.4915 37.0506 17.3314C35.8992 16.1712 34.3375 15.5195 32.7091 15.5195C31.0807 15.5195 29.519 16.1712 28.3675 17.3314C27.2161 18.4915 26.5692 20.065 26.5692 21.7056C26.5692 23.3463 27.2161 24.9198 28.3675 26.0799C29.519 27.24 31.0807 27.8918 32.7091 27.8918C34.3375 27.8918 35.8992 27.24 37.0506 26.0799C38.2021 24.9198 38.849 23.3463 38.849 21.7056Z" fill="black"/>
    <path d="M59.3468 19.6621L59.2211 19.934C59.2112 19.9563 59.1957 19.9757 59.1761 19.9901C59.1565 20.0045 59.1335 20.0135 59.1093 20.0162C59.0852 20.0189 59.0608 20.0151 59.0386 20.0053C59.0163 19.9955 58.997 19.9801 58.9826 19.9604L58.8149 19.7386C58.7573 19.6618 58.6755 19.6085 58.5843 19.5881L50.5052 17.806C50.4637 17.797 50.4205 17.7981 50.3791 17.8091C50.3377 17.8201 50.2992 17.8407 50.2667 17.8693L50.0728 18.0383C49.9278 18.1668 49.8553 18.1333 49.8553 17.938V17.5921C49.8554 17.5572 49.8434 17.5234 49.8214 17.4964C49.7994 17.4694 49.7688 17.451 49.7348 17.4442L47.6567 17.0086C47.6189 17.0004 47.5859 16.9774 47.5648 16.9448C47.5437 16.9122 47.5362 16.8725 47.544 16.8343L48.0288 14.5743C48.0328 14.5545 48.0407 14.5357 48.0521 14.5191C48.0636 14.5024 48.0783 14.4883 48.0954 14.4774C48.1125 14.4666 48.1317 14.4593 48.1518 14.456C48.1718 14.4526 48.1924 14.4534 48.2123 14.4581L50.2615 14.9413C50.3056 14.952 50.3521 14.9455 50.3915 14.9229C50.4309 14.9003 50.4604 14.8635 50.4738 14.8198L50.5131 14.6825C50.5275 14.6363 50.5579 14.5967 50.5988 14.5711C50.6396 14.5454 50.6882 14.5353 50.7358 14.5426C50.8441 14.5584 50.9 14.6148 50.9035 14.7116C50.9058 14.763 50.9248 14.8122 50.9575 14.8514C50.9903 14.8906 51.0349 14.9176 51.0843 14.9281L59.2394 16.7366C59.2833 16.7466 59.3287 16.7476 59.3728 16.7394C59.417 16.7312 59.459 16.7141 59.4962 16.6891L59.7347 16.5307C59.8849 16.4304 59.9522 16.4709 59.9365 16.6522L59.9129 16.9505C59.9101 16.9855 59.9198 17.0203 59.9401 17.0481C59.9604 17.0758 59.9899 17.0947 60.0229 17.101L60.9925 17.2964C61.0309 17.3039 61.0674 17.3191 61.0997 17.3411C61.1321 17.3631 61.1598 17.3915 61.1811 17.4245C61.2024 17.4575 61.2168 17.4945 61.2236 17.5333C61.2304 17.5721 61.2293 17.6118 61.2205 17.6502L60.7462 19.7096C60.7406 19.7343 60.7302 19.7577 60.7156 19.7783C60.7011 19.799 60.6826 19.8164 60.6614 19.8297C60.6401 19.843 60.6165 19.8518 60.5919 19.8557C60.5673 19.8595 60.5423 19.8583 60.5182 19.8522L59.4988 19.5908C59.4689 19.5828 59.4371 19.5856 59.4093 19.5986C59.3815 19.6117 59.3593 19.6342 59.3468 19.6621Z" fill="black"/>
    <path d="M30.7912 14.4713L31.0376 14.4871C31.1616 14.4959 31.166 14.5241 31.0507 14.5716L29.0879 15.3954C29.5648 14.9289 30.1326 14.6209 30.7912 14.4713Z" fill="#FFB727"/>
    <path d="M40.0938 20.235L40.023 20.2244C40.0048 20.2211 39.9878 20.2129 39.974 20.2008C39.9601 20.1887 39.9499 20.1732 39.9444 20.1558L39.3076 18.1888L46.8075 14.6218C46.9211 14.5672 46.9639 14.6024 46.9359 14.7274L46.4407 16.9426C46.4308 16.9879 46.4111 17.0304 46.383 17.0669C46.3549 17.1034 46.3191 17.1331 46.2782 17.1538L40.0938 20.235Z" fill="black"/>
    <path d="M35.5737 15.0204C36.0122 15.0363 36.4071 15.1745 36.7582 15.435C36.7654 15.4407 36.7711 15.448 36.7747 15.4565C36.7783 15.4649 36.7798 15.4741 36.7791 15.4833C36.7783 15.4925 36.7752 15.5013 36.7702 15.509C36.7652 15.5167 36.7584 15.523 36.7503 15.5274L36.6219 15.5934L35.5737 15.0204Z" fill="#FFB727"/>
    <path d="M32.7092 27.8917C36.1002 27.8917 38.8491 25.1221 38.8491 21.7056C38.8491 18.2891 36.1002 15.5195 32.7092 15.5195C29.3183 15.5195 26.5693 18.2891 26.5693 21.7056C26.5693 25.1221 29.3183 27.8917 32.7092 27.8917Z" fill="#FFB727"/>
    <path d="M28.4222 15.604L28.6947 15.6805L26.8708 17.4522L26.8604 17.1327L28.4222 15.604Z" fill="#FFB727"/>
    <path d="M36.6875 15.6145C37.2134 15.6216 37.5374 15.8821 37.6597 16.3961L36.6875 15.6145Z" fill="#FFB727"/>
    <path d="M37.8008 16.5386C38.3563 16.7621 38.7022 17.1767 38.8385 17.7822L37.8008 16.5386Z" fill="#FFB727"/>
    <path d="M90.822 33.5472L92.4467 33.8825C92.4816 33.8898 92.513 33.9091 92.5354 33.937C92.5579 33.9649 92.57 33.9997 92.5699 34.0356V34.7116C92.5699 34.755 92.5528 34.7966 92.5223 34.8273C92.4919 34.858 92.4505 34.8753 92.4074 34.8753L80.8143 34.8832C80.7712 34.8832 80.7287 34.873 80.69 34.8533C80.6513 34.8336 80.6176 34.8049 80.5915 34.7696C78.6995 32.1734 76.8267 29.5622 74.9731 26.936C74.774 26.6543 74.4892 26.5153 74.1188 26.5188C74.0831 26.5188 74.0489 26.5329 74.0234 26.5581C73.9979 26.5833 73.9833 26.6175 73.9826 26.6535C73.9564 28.5721 73.952 30.4757 73.9695 32.3644C73.9799 33.5314 74.9233 33.7003 75.9977 33.8297C76.0333 33.8342 76.066 33.8512 76.0896 33.8775C76.1133 33.9037 76.1263 33.9375 76.1262 33.9723V34.7221C76.1262 34.7501 76.1148 34.777 76.0947 34.7968C76.0745 34.8166 76.0472 34.8277 76.0187 34.8277L68.1781 34.8356C68.1489 34.8356 68.1209 34.824 68.1003 34.8032C68.0797 34.7824 68.0681 34.7542 68.0681 34.7248V33.9696C68.068 33.935 68.0812 33.9016 68.105 33.8761C68.1288 33.8507 68.1615 33.835 68.1965 33.8323C69.1765 33.7531 70.1881 33.6211 70.2221 32.3512C70.3392 28.1479 70.361 23.9375 70.2876 19.7201C70.2789 19.1463 69.9959 18.8013 69.4386 18.6852L68.2017 18.429C68.163 18.4206 68.1283 18.3992 68.1035 18.3684C68.0787 18.3377 68.0652 18.2994 68.0654 18.2601L68.0681 17.5525C68.0681 17.5084 68.0854 17.4661 68.1164 17.4349C68.1474 17.4037 68.1894 17.3861 68.2331 17.3861L75.9532 17.3835C75.9998 17.3835 76.0444 17.4021 76.0773 17.4353C76.1103 17.4685 76.1288 17.5135 76.1288 17.5604L76.1262 18.2918C76.1262 18.3304 76.1129 18.368 76.0886 18.3978C76.0642 18.4277 76.0302 18.4481 75.9925 18.4555L74.8238 18.6772C74.256 18.7864 73.9712 19.1322 73.9695 19.7149L73.9616 25.3835C73.9619 25.4011 73.9666 25.4183 73.9753 25.4335C73.984 25.4487 73.9965 25.4614 74.0114 25.4704C74.0264 25.4794 74.0434 25.4843 74.0608 25.4849C74.0782 25.4854 74.0955 25.4814 74.111 25.4733C75.0177 24.9699 75.8353 24.3353 76.5638 23.5696C77.8286 22.2442 78.9982 20.8378 80.0727 19.3505C80.3469 18.9703 80.2543 18.738 79.7949 18.6535L78.634 18.4422C78.592 18.4342 78.5541 18.4119 78.5268 18.3791C78.4995 18.3464 78.4846 18.3052 78.4846 18.2627L78.482 17.5604C78.482 17.5142 78.5002 17.4699 78.5327 17.4372C78.5651 17.4045 78.6091 17.3861 78.6549 17.3861L85.3347 17.3835C85.3553 17.3832 85.3758 17.3869 85.395 17.3945C85.4142 17.4022 85.4318 17.4136 85.4466 17.428C85.4615 17.4425 85.4733 17.4598 85.4815 17.4789C85.4898 17.4979 85.4942 17.5185 85.4945 17.5393V18.297C85.4946 18.3436 85.4773 18.3884 85.4461 18.4223C85.4149 18.4561 85.3722 18.4765 85.3268 18.4792C82.7194 18.6323 81.8127 19.8178 79.8001 21.9195C79.0594 22.6957 78.3248 23.4764 77.5963 24.2614C77.5771 24.2822 77.5656 24.3091 77.5637 24.3374C77.5618 24.3658 77.5696 24.3939 77.5858 24.4172C79.4708 27.0891 81.4161 29.7109 83.4217 32.2825C85.0805 34.4106 87.5673 34.4528 88.6837 31.6911C90.6071 26.9333 92.5175 22.1703 94.4148 17.402C94.4308 17.3599 94.4572 17.3226 94.4915 17.2936C94.5259 17.2645 94.5671 17.2446 94.6113 17.2356L95.6412 17.0271C95.6761 17.0206 95.7121 17.0269 95.7429 17.0448C95.7736 17.0627 95.797 17.0911 95.8089 17.1248C97.6013 21.9987 99.4505 26.8471 101.357 31.67C101.849 32.9188 102.308 33.798 103.804 33.8218C103.848 33.8225 103.89 33.8406 103.921 33.8722C103.952 33.9038 103.969 33.9464 103.969 33.9908V34.7116C103.969 34.7557 103.952 34.798 103.921 34.8292C103.89 34.8604 103.848 34.8779 103.804 34.8779H96.4037C96.3599 34.8779 96.3179 34.8604 96.287 34.8292C96.256 34.798 96.2386 34.7557 96.2386 34.7116V34.0568C96.2387 34.0081 96.2546 33.9608 96.284 33.9221C96.3133 33.8835 96.3545 33.8557 96.4011 33.8429L97.2868 33.5974C97.7184 33.4777 97.8607 33.2057 97.714 32.7815L96.5059 29.2753C96.4922 29.2344 96.4661 29.1989 96.4313 29.1738C96.3965 29.1487 96.3548 29.1353 96.312 29.1353H91.3854C91.3501 29.1354 91.3158 29.1464 91.2872 29.1667C91.2585 29.187 91.237 29.2157 91.2256 29.2488L90.1616 32.3855C89.945 33.0244 90.1651 33.4117 90.822 33.5472ZM91.7838 27.5591C91.7792 27.5713 91.7775 27.5844 91.779 27.5973C91.7804 27.6103 91.7849 27.6227 91.7921 27.6336C91.7993 27.6444 91.8089 27.6534 91.8202 27.6597C91.8315 27.666 91.8442 27.6696 91.8571 27.67L95.7931 27.6964C95.8063 27.6964 95.8193 27.6932 95.8309 27.687C95.8426 27.6809 95.8526 27.6719 95.86 27.661C95.8675 27.6501 95.8722 27.6375 95.8738 27.6244C95.8754 27.6112 95.8738 27.5979 95.8691 27.5855L93.9378 22.3261C93.932 22.3105 93.9216 22.2971 93.908 22.2877C93.8944 22.2782 93.8783 22.2732 93.8618 22.2732C93.8453 22.2732 93.8292 22.2782 93.8156 22.2877C93.8021 22.2971 93.7917 22.3105 93.7858 22.3261L91.7838 27.5591Z" fill="black"/>
    <path d="M128.518 35.2106C117.072 33.7056 118.196 16.8026 130.091 17.0429C140.667 17.2594 141.933 32.3459 132.08 35.0152C130.979 35.3144 129.792 35.3795 128.518 35.2106ZM133.702 21.6185C132.106 17.2621 126.755 17.0561 125.332 21.7479C124.276 25.2277 124.48 31.464 128.078 33.5604C128.953 34.0691 129.872 34.2081 130.835 33.9776C135.536 32.8475 134.852 24.7657 133.702 21.6185Z" fill="black"/>
    <path d="M21.357 33.7241C16.6689 28.1874 19.0588 19.794 25.7621 17.365C25.846 17.3351 25.8599 17.3544 25.804 17.4231C25.2328 18.128 24.465 18.7907 23.9749 19.3954C20.846 23.2528 19.6039 28.8634 21.4802 33.6502C21.5868 33.923 21.5457 33.9476 21.357 33.7241Z" fill="black"/>
    <path d="M104.897 18.363L104.912 17.5762C104.913 17.5249 104.934 17.4758 104.971 17.4398C105.008 17.4037 105.057 17.3835 105.109 17.3835L113.109 17.3861C113.153 17.3868 113.194 17.4046 113.224 17.4358C113.255 17.4669 113.272 17.5088 113.272 17.5525V18.2944C113.272 18.3299 113.259 18.3643 113.236 18.391C113.212 18.4178 113.179 18.4351 113.144 18.4396C112.004 18.5901 110.903 18.6244 110.903 20.161C110.901 24.1848 110.907 28.2103 110.921 32.2376C110.927 34.4211 115.222 33.8191 116.149 32.7604C116.888 31.9173 117.478 30.9808 117.918 29.9511C117.933 29.9144 117.961 29.8843 117.997 29.8664C118.032 29.8485 118.073 29.8439 118.112 29.8535L118.917 30.0647C118.939 30.0705 118.961 30.0808 118.979 30.095C118.998 30.1092 119.014 30.127 119.026 30.1474C119.038 30.1677 119.046 30.1903 119.049 30.2137C119.052 30.2371 119.051 30.2609 119.045 30.2838L117.905 34.7221C117.894 34.7667 117.869 34.8062 117.833 34.8344C117.797 34.8626 117.753 34.8779 117.708 34.8779H104.8C104.755 34.8779 104.712 34.8602 104.68 34.8285C104.648 34.7969 104.63 34.754 104.629 34.7089L104.622 33.996C104.621 33.9579 104.636 33.9211 104.662 33.8932C104.687 33.8652 104.723 33.8482 104.76 33.8455C106.178 33.7531 107.143 33.6554 107.158 31.9261C107.186 28.3547 107.195 24.7841 107.184 21.2145C107.179 19.8072 107.056 18.1518 105.078 18.5188C105.055 18.5227 105.032 18.5215 105.01 18.5155C104.988 18.5094 104.968 18.4985 104.951 18.4837C104.934 18.4688 104.92 18.4503 104.91 18.4294C104.901 18.4086 104.896 18.3859 104.897 18.363Z" fill="black"/>
    <path d="M26.5876 17.8482L25.8224 19.6304C25.8154 18.9228 26.0705 18.3287 26.5876 17.8482Z" fill="#FFB727"/>
    <path d="M39.0459 18.1888H39.308L39.9447 20.1558C39.9502 20.1732 39.9604 20.1888 39.9743 20.2009C39.9882 20.2129 40.0051 20.2211 40.0234 20.2244L40.0941 20.235L39.8216 20.4885L39.0459 18.1888Z" fill="#FFB727"/>
    <path d="M125.331 21.7479C126.754 17.0561 132.106 17.262 133.701 21.6185C134.852 24.7657 135.536 32.8475 130.835 33.9776C129.872 34.2081 128.953 34.0691 128.078 33.5604C124.48 31.464 124.275 25.2277 125.331 21.7479Z" fill="white"/>
    <path d="M40.9876 20.8317C46.1159 26.2627 44.0588 34.5003 37.4446 37.5102C37.429 37.5178 37.4128 37.522 37.3988 37.522C37.3849 37.522 37.3742 37.5178 37.3686 37.5102L37.3529 37.4917C37.3487 37.4867 37.3472 37.4796 37.3487 37.4718C37.3501 37.464 37.3544 37.4561 37.3608 37.4495C42.0061 32.7322 43.1993 27.2026 40.9404 20.8607C40.9107 20.7762 40.9264 20.7666 40.9876 20.8317Z" fill="black"/>
    <path d="M91.7836 27.5591L93.7857 22.3261C93.7915 22.3105 93.8019 22.2971 93.8155 22.2877C93.8291 22.2782 93.8452 22.2731 93.8617 22.2731C93.8782 22.2731 93.8943 22.2782 93.9079 22.2877C93.9215 22.2971 93.9319 22.3105 93.9377 22.3261L95.869 27.5855C95.8737 27.5979 95.8753 27.6112 95.8737 27.6244C95.8721 27.6375 95.8674 27.6501 95.8599 27.661C95.8524 27.6719 95.8424 27.6808 95.8308 27.687C95.8191 27.6931 95.8062 27.6964 95.793 27.6964L91.857 27.67C91.8441 27.6695 91.8314 27.666 91.8201 27.6597C91.8088 27.6534 91.7991 27.6444 91.792 27.6335C91.7848 27.6227 91.7803 27.6103 91.7788 27.5973C91.7774 27.5844 91.779 27.5712 91.7836 27.5591Z" fill="white"/>
    <path d="M25.626 22.8647C26.1938 25.211 27.5224 26.9677 29.6118 28.1347C27.8875 27.9023 26.323 25.5842 25.778 24.0792C25.6443 23.7069 25.6836 23.2739 25.626 22.8647Z" fill="#FFB727"/>
    <path d="M39.7558 23.2607L39.6038 24.1716C39.5829 24.2948 39.5523 24.2975 39.5121 24.1795L39.4492 23.9868L39.7558 23.2607Z" fill="#FFB727"/>
    <path d="M39.1583 24.9267C38.8246 25.8438 38.263 26.5901 37.4733 27.1657L37.3423 27.1445C38.0289 26.481 38.6342 25.7417 39.1583 24.9267Z" fill="#FFB727"/>
    <path d="M26.6944 27.3488L24.4627 26.8544C24.4245 26.846 24.3868 26.8703 24.3784 26.9088L19.934 47.2751C19.9256 47.3136 19.9498 47.3516 19.9879 47.3601L22.2197 47.8544C22.2579 47.8629 22.2956 47.8386 22.304 47.8001L26.7484 27.4338C26.7567 27.3953 26.7326 27.3573 26.6944 27.3488Z" fill="black"/>
    <path d="M37.3422 27.1446L37.4732 27.1657C36.9351 27.7606 36.28 28.1496 35.5078 28.3327L37.3422 27.1446Z" fill="#FFB727"/>
    <path d="M30.0051 28.2878L31.1843 28.6627L30.0942 28.4779C30.0686 28.4735 30.0454 28.46 30.0286 28.4397C30.0119 28.4195 30.0026 28.3937 30.0024 28.367L30.0051 28.2878Z" fill="#FFB727"/>
    <path d="M35.2353 28.4092C35.0589 28.631 34.83 28.7234 34.5488 28.6865C34.2658 28.6495 34.257 28.668 34.5226 28.7419L34.5933 28.7604C34.6335 28.771 34.6326 28.778 34.5907 28.7815L33.1494 28.8607L35.2353 28.4092Z" fill="#FFB727"/>
    <path d="M37.8972 29.8279L35.7567 29.3577C35.6945 29.3441 35.633 29.3838 35.6195 29.4465L31.2283 49.7381C31.2147 49.8008 31.2542 49.8627 31.3164 49.8763L33.4568 50.3465C33.5191 50.3602 33.5805 50.3205 33.5941 50.2578L37.9853 29.9662C37.9988 29.9035 37.9594 29.8416 37.8972 29.8279Z" fill="black"/>
    <path d="M26.6242 62.6693C26.6015 63.6726 26.1124 64.0898 25.1567 63.9208C23.8692 63.6937 22.7118 63.4042 21.6846 63.0521C21.5203 62.6878 21.4557 62.4273 21.4906 62.2706C23.456 53.2638 25.4223 44.2561 27.3894 35.2475C27.5807 34.3762 27.8559 34.0647 28.7757 34.2653C29.8152 34.4924 30.8179 34.7177 31.784 34.9412C32.3431 35.0697 32.5606 35.4165 32.4365 35.9815L26.6242 62.6693Z" fill="black"/>
    <path d="M201.125 39.3769L200.994 39.3558C202.047 38.0436 200.488 36.4568 199.031 37.0429C199.003 37.0542 198.98 37.0756 198.967 37.103C198.954 37.1303 198.952 37.1617 198.96 37.1908C198.969 37.2225 198.992 37.2471 199.028 37.2647L198.952 37.4522C198.874 37.3694 198.793 37.3756 198.709 37.4706C198.153 38.1043 198.15 38.7344 198.698 39.3611C198.784 39.4596 198.872 39.4579 198.963 39.3558L199.028 39.4218C198.969 39.4306 198.93 39.4702 198.91 39.5406C198.899 39.5831 198.902 39.6284 198.921 39.6684C198.939 39.7085 198.97 39.7408 199.01 39.7597C199.517 40.0027 200.043 40.0299 200.59 39.8416C200.693 39.8082 200.712 39.8346 200.648 39.9208C200.599 39.9894 200.513 40.0405 200.391 40.0739C197.663 40.7789 197.262 36.8185 199.71 36.6654C200.225 36.6337 200.681 36.8176 201.078 37.2172C201.673 37.8174 201.689 38.5373 201.125 39.3769Z" fill="#C7C7C7"/>
    <path d="M200.994 39.3558C200.639 39.2062 200.35 38.9624 200.126 38.6244C200.109 38.5991 200.101 38.5682 200.104 38.537C200.107 38.5058 200.12 38.4761 200.142 38.4528L200.522 38.0409C200.56 38.0003 200.581 37.9464 200.58 37.8907C200.579 37.835 200.556 37.7818 200.517 37.7426L200.221 37.4442C200.155 37.3778 200.067 37.3375 199.974 37.3307L199.028 37.2647C198.992 37.2471 198.969 37.2224 198.96 37.1908C198.952 37.1617 198.954 37.1303 198.967 37.103C198.98 37.0756 199.003 37.0542 199.031 37.0429C200.488 36.4568 202.047 38.0436 200.994 39.3558Z" fill="white"/>
    <path d="M199.029 37.2647L199.975 37.3307C200.068 37.3375 200.155 37.3778 200.221 37.4442L200.517 37.7426C200.556 37.7818 200.579 37.8349 200.58 37.8907C200.581 37.9464 200.56 38.0003 200.522 38.0409L200.142 38.4528C200.121 38.4761 200.107 38.5058 200.104 38.537C200.101 38.5682 200.109 38.5991 200.127 38.6244C200.35 38.9624 200.639 39.2062 200.994 39.3558L201.125 39.3769C200.821 39.7043 200.351 39.42 199.715 38.5241C199.455 38.158 199.343 38.1993 199.38 38.6482C199.402 38.9104 199.484 39.0961 199.623 39.2053C199.638 39.2169 199.65 39.2322 199.658 39.2496C199.666 39.267 199.669 39.2861 199.668 39.3052C199.667 39.3242 199.661 39.3427 199.651 39.3589C199.641 39.3751 199.627 39.3885 199.61 39.398C199.439 39.4983 199.245 39.5063 199.029 39.4218L198.963 39.3558C199.232 38.7186 199.229 38.084 198.953 37.4521L199.029 37.2647ZM199.487 37.5762L199.406 38.1069C199.399 38.1523 199.41 38.1986 199.437 38.236C199.464 38.2734 199.505 38.2991 199.55 38.3076C199.742 38.341 199.905 38.2961 200.038 38.1729C200.073 38.139 200.101 38.097 200.117 38.0504C200.134 38.0038 200.14 37.9538 200.134 37.9046C200.127 37.8555 200.11 37.8084 200.082 37.7674C200.055 37.7264 200.018 37.6926 199.975 37.6686L199.655 37.4917C199.639 37.4831 199.621 37.4785 199.602 37.4783C199.584 37.4781 199.566 37.4823 199.55 37.4906C199.533 37.4988 199.519 37.5109 199.508 37.5258C199.497 37.5407 199.49 37.558 199.487 37.5762Z" fill="black"/>
    <path d="M198.953 37.4522C199.229 38.0841 199.232 38.7186 198.963 39.3558C198.872 39.4579 198.784 39.4596 198.698 39.3611C198.15 38.7344 198.153 38.1043 198.709 37.4706C198.793 37.3756 198.874 37.3694 198.953 37.4522Z" fill="white"/>
    <path d="M199.487 37.5762C199.49 37.558 199.497 37.5407 199.508 37.5258C199.519 37.5109 199.533 37.4988 199.549 37.4906C199.566 37.4823 199.584 37.4781 199.602 37.4783C199.62 37.4785 199.638 37.4831 199.655 37.4917L199.974 37.6686C200.017 37.6926 200.054 37.7264 200.082 37.7674C200.11 37.8085 200.127 37.8555 200.133 37.9047C200.139 37.9538 200.134 38.0038 200.117 38.0504C200.101 38.097 200.073 38.139 200.037 38.1729C199.904 38.2961 199.742 38.341 199.55 38.3076C199.504 38.2991 199.464 38.2734 199.437 38.236C199.41 38.1986 199.399 38.1523 199.406 38.1069L199.487 37.5762Z" fill="white"/>
    <path d="M103.888 41.9512C100.599 41.8456 100.038 42.033 98.9484 45.2621C98.9353 45.2999 98.9109 45.3327 98.8785 45.3558C98.846 45.379 98.8073 45.3915 98.7675 45.3914H98.0443C98.0259 45.3915 98.0077 45.3877 97.9909 45.3803C97.9741 45.3728 97.959 45.3619 97.9467 45.3482C97.9343 45.3345 97.925 45.3184 97.9192 45.3008C97.9134 45.2832 97.9114 45.2646 97.9133 45.2462L98.3352 40.1241C98.3382 40.0936 98.35 40.0646 98.3691 40.0407C98.3881 40.0168 98.4137 39.999 98.4426 39.9894C98.8881 39.8522 99.2226 39.9657 99.4463 40.33C99.4998 40.4187 99.5751 40.4919 99.6651 40.5428C99.755 40.5936 99.8565 40.6204 99.9599 40.6205L111.818 40.6178C112.134 40.6178 112.387 40.4911 112.578 40.2376C112.793 39.9507 113.09 39.8654 113.471 39.9815C113.511 39.9939 113.547 40.0185 113.572 40.0521C113.598 40.0856 113.613 40.1264 113.615 40.169L113.872 45.0799C113.874 45.1173 113.862 45.1543 113.838 45.1836C113.814 45.2129 113.779 45.2324 113.741 45.2383L113.007 45.3413C112.967 45.3466 112.926 45.337 112.891 45.3142C112.857 45.2914 112.832 45.2569 112.821 45.2172C112.6 44.3864 112.267 43.6057 111.823 42.8753C111.037 41.5789 109.168 41.9564 107.905 41.9036C107.888 41.9029 107.871 41.9057 107.855 41.9119C107.838 41.9181 107.824 41.9275 107.811 41.9396C107.799 41.9517 107.789 41.9662 107.782 41.9823C107.775 41.9983 107.772 42.0156 107.772 42.033C107.765 46.4211 107.766 50.8128 107.777 55.2079C107.782 56.8792 108.93 57.0324 110.256 57.0799C110.292 57.0812 110.327 57.0964 110.353 57.1223C110.378 57.1483 110.393 57.1831 110.395 57.2198L110.431 57.9564C110.432 57.9767 110.429 57.9968 110.422 58.0157C110.414 58.0345 110.404 58.0518 110.39 58.0663C110.376 58.0808 110.359 58.0924 110.34 58.1003C110.322 58.1082 110.302 58.1122 110.282 58.1122H101.71C101.667 58.1122 101.625 58.0947 101.594 58.0635C101.563 58.0323 101.545 57.99 101.545 57.9459V57.2304C101.545 57.1932 101.559 57.1574 101.584 57.1304C101.609 57.1034 101.643 57.0872 101.679 57.0852C102.774 57.0112 103.993 56.9215 104.006 55.4535C104.041 50.9985 104.045 46.5435 104.019 42.0885C104.019 42.0529 104.005 42.0188 103.981 41.9932C103.957 41.9676 103.923 41.9525 103.888 41.9512Z" fill="black"/>
    <path d="M152.954 41.8957C152.027 41.9327 150.523 41.7795 149.757 42.2548C148.811 42.8383 148.39 44.2455 148.057 45.2515C148.044 45.2871 148.021 45.318 147.991 45.3398C147.961 45.3615 147.926 45.3731 147.889 45.3729L147.147 45.3756C147.129 45.3756 147.11 45.3718 147.093 45.3642C147.075 45.3567 147.06 45.3456 147.047 45.3317C147.034 45.3178 147.025 45.3014 147.018 45.2835C147.012 45.2656 147.01 45.2466 147.011 45.2277L147.423 40.0792C147.425 40.0468 147.44 40.0166 147.463 39.9946C147.486 39.9725 147.517 39.9603 147.548 39.9604H148.107C148.153 39.9605 148.198 39.9727 148.238 39.9959C148.278 40.019 148.312 40.0523 148.335 40.0924C148.528 40.4427 148.764 40.6187 149.042 40.6205C152.962 40.6205 156.887 40.6205 160.816 40.6205C161.15 40.6205 161.426 40.492 161.644 40.235C161.887 39.9481 162.202 39.8627 162.59 39.9789C162.626 39.9897 162.658 40.0114 162.682 40.0412C162.705 40.071 162.719 40.1073 162.721 40.1452L162.965 45.0825C162.966 45.1218 162.953 45.1602 162.927 45.1897C162.901 45.2192 162.865 45.2376 162.826 45.2409L162.077 45.3175C162.036 45.321 161.996 45.3105 161.963 45.2878C161.93 45.2652 161.906 45.2317 161.896 45.1934C161.06 42.1043 160.072 41.7056 156.998 41.9855C156.962 41.9881 156.928 42.0045 156.904 42.0314C156.879 42.0583 156.865 42.0937 156.864 42.1307C156.826 46.4079 156.821 50.6772 156.851 54.9386C156.864 56.837 157.726 56.9531 159.312 57.0825C159.347 57.0854 159.38 57.1006 159.405 57.1252C159.43 57.1498 159.445 57.1824 159.448 57.2172L159.503 57.9538C159.505 57.9741 159.502 57.9944 159.495 58.0136C159.488 58.0328 159.478 58.0504 159.464 58.0652C159.45 58.0801 159.434 58.0919 159.415 58.1C159.397 58.1081 159.377 58.1123 159.356 58.1122H150.745C150.711 58.1122 150.677 58.0983 150.653 58.0735C150.628 58.0488 150.614 58.0152 150.614 57.9802V57.2251C150.614 57.189 150.628 57.1543 150.652 57.1278C150.676 57.1014 150.71 57.0852 150.745 57.0825C151.801 57.0059 153.07 56.8581 153.093 55.7175C153.128 53.864 153.127 49.2999 153.088 42.0251C153.088 42.0076 153.085 41.9904 153.078 41.9743C153.071 41.9583 153.061 41.9438 153.049 41.9317C153.036 41.9196 153.021 41.9102 153.005 41.904C152.989 41.8978 152.972 41.895 152.954 41.8957Z" fill="black"/>
    <path d="M91.6263 52.3696H86.7443C86.6998 52.3697 86.6563 52.383 86.6191 52.4078C86.5818 52.4327 86.5525 52.4681 86.5346 52.5096C85.848 54.1712 85.4768 55.2889 85.4209 55.8627C85.3187 56.9083 86.9487 57.0297 87.6876 57.0931C87.7333 57.0964 87.7759 57.1168 87.807 57.1501C87.8382 57.1834 87.8554 57.2272 87.8554 57.2726L87.8527 57.9485C87.8527 57.9919 87.8353 58.0336 87.8044 58.0643C87.7734 58.095 87.7314 58.1122 87.6876 58.1122H81.3014C81.2667 58.1122 81.2334 58.0983 81.2088 58.0735C81.1842 58.0488 81.1704 58.0152 81.1704 57.9802V57.233C81.1703 57.1946 81.1845 57.1575 81.2102 57.1291C81.2359 57.1008 81.2713 57.0832 81.3093 57.0799C83.3271 56.9109 83.6625 55.7175 84.4277 53.8191C86.1974 49.4275 87.9558 45.0315 89.7028 40.631C89.7172 40.5946 89.7406 40.5625 89.7709 40.5376C89.8011 40.5127 89.8372 40.4958 89.8758 40.4885L90.9109 40.2931C90.9496 40.2857 90.9897 40.2925 91.0242 40.3123C91.0587 40.3321 91.0854 40.3636 91.0996 40.4013C92.8099 45.0376 94.5543 49.6581 96.3327 54.2627C96.8385 55.567 97.3311 57.0667 99.0843 57.0482C99.1053 57.0478 99.1261 57.0517 99.1456 57.0596C99.1652 57.0676 99.183 57.0793 99.1981 57.0943C99.2132 57.1092 99.2252 57.1271 99.2336 57.1468C99.2419 57.1665 99.2464 57.1878 99.2468 57.2092L99.2546 57.9459C99.2546 57.99 99.2372 58.0323 99.2063 58.0635C99.1753 58.0947 99.1333 58.1122 99.0895 58.1122H91.6866C91.6428 58.1122 91.6008 58.0947 91.5698 58.0635C91.5389 58.0323 91.5215 57.99 91.5215 57.9459V57.2621C91.5213 57.2236 91.5339 57.1861 91.5571 57.1555C91.5803 57.125 91.6129 57.103 91.6499 57.0931L92.4675 56.8713C92.9671 56.734 93.1322 56.4198 92.9627 55.9287L91.7757 52.4779C91.7648 52.4463 91.7445 52.4188 91.7178 52.3994C91.691 52.38 91.659 52.3696 91.6263 52.3696ZM87.064 50.7881C87.0594 50.8003 87.0577 50.8134 87.0592 50.8264C87.0606 50.8393 87.0651 50.8518 87.0723 50.8626C87.0795 50.8735 87.0891 50.8824 87.1004 50.8888C87.1118 50.8951 87.1244 50.8986 87.1373 50.899L91.0707 50.9333C91.0841 50.9338 91.0974 50.9309 91.1094 50.9249C91.1214 50.919 91.1317 50.9101 91.1395 50.8991C91.1473 50.8881 91.1523 50.8754 91.154 50.862C91.1557 50.8486 91.1541 50.8351 91.1493 50.8224L89.2285 45.563C89.2229 45.5474 89.2128 45.5338 89.1994 45.5241C89.186 45.5144 89.1699 45.5091 89.1534 45.5088C89.1369 45.5085 89.1207 45.5133 89.107 45.5225C89.0932 45.5317 89.0826 45.5449 89.0765 45.5604L87.064 50.7881Z" fill="black"/>
    <path d="M140.895 52.3696H136.01C135.966 52.3697 135.922 52.383 135.885 52.4078C135.848 52.4327 135.819 52.4681 135.801 52.5096C135.114 54.1712 134.743 55.2889 134.687 55.8627C134.585 56.9083 136.215 57.0297 136.954 57.0931C136.999 57.0964 137.042 57.1168 137.073 57.1501C137.104 57.1834 137.122 57.2272 137.121 57.2726L137.119 57.9485C137.119 57.9919 137.101 58.0336 137.07 58.0643C137.04 58.095 136.998 58.1122 136.954 58.1122H130.568C130.533 58.1122 130.499 58.0983 130.475 58.0735C130.45 58.0488 130.437 58.0152 130.437 57.9802V57.2356C130.436 57.1975 130.451 57.1607 130.477 57.1328C130.502 57.1049 130.538 57.0878 130.575 57.0852C132.596 56.9135 132.929 55.7175 133.691 53.8165C135.454 49.4196 137.215 45.0218 138.974 40.6231C138.989 40.5867 139.012 40.5546 139.042 40.5297C139.072 40.5047 139.109 40.4878 139.147 40.4805L140.122 40.2957C140.176 40.286 140.232 40.2957 140.28 40.3232C140.328 40.3507 140.365 40.3942 140.384 40.4462C142.142 45.2022 143.881 49.8077 145.601 54.2627C146.107 55.567 146.595 57.0667 148.348 57.0482C148.369 57.0478 148.39 57.0517 148.41 57.0596C148.43 57.0675 148.448 57.0793 148.463 57.0943C148.479 57.1092 148.491 57.1271 148.5 57.1468C148.508 57.1665 148.513 57.1877 148.513 57.2092L148.521 57.9459C148.521 57.99 148.503 58.0323 148.472 58.0635C148.441 58.0947 148.399 58.1122 148.356 58.1122H140.953C140.909 58.1122 140.867 58.0947 140.836 58.0635C140.805 58.0323 140.788 57.99 140.788 57.9459V57.2647C140.787 57.2269 140.8 57.1901 140.822 57.16C140.845 57.1299 140.877 57.1082 140.913 57.0984L141.789 56.8502C142.245 56.7217 142.396 56.4321 142.242 55.9815L141.044 52.4779C141.033 52.4463 141.013 52.4188 140.986 52.3994C140.96 52.38 140.928 52.3696 140.895 52.3696ZM136.338 50.7855C136.333 50.798 136.332 50.8115 136.333 50.8248C136.335 50.838 136.34 50.8507 136.347 50.8618C136.355 50.8729 136.364 50.882 136.376 50.8885C136.388 50.895 136.401 50.8986 136.414 50.899L140.329 50.9333C140.342 50.9332 140.355 50.9299 140.367 50.9237C140.378 50.9176 140.389 50.9088 140.396 50.898C140.404 50.8872 140.409 50.8747 140.411 50.8616C140.413 50.8485 140.412 50.8351 140.408 50.8224L138.497 45.5525C138.491 45.5363 138.481 45.5224 138.467 45.5125C138.452 45.5027 138.436 45.4974 138.419 45.4974C138.402 45.4974 138.385 45.5027 138.371 45.5125C138.357 45.5224 138.346 45.5363 138.34 45.5525L136.338 50.7855Z" fill="black"/>
    <path d="M76.7129 53.0957C78.121 49.783 79.4296 46.4326 80.6385 43.0442C80.8446 42.4686 80.6507 42.1157 80.0567 41.9855L78.6023 41.6686C78.5691 41.6614 78.5393 41.6426 78.5178 41.6152C78.4964 41.5878 78.4846 41.5536 78.4844 41.5181V40.7841C78.4844 40.7407 78.5015 40.6991 78.532 40.6684C78.5625 40.6377 78.6038 40.6205 78.6469 40.6205H84.64C84.6871 40.6204 84.7323 40.6389 84.7661 40.6719C84.7998 40.705 84.8195 40.75 84.8208 40.7974L84.8444 41.5525C84.8455 41.5749 84.842 41.5973 84.8342 41.6183C84.8265 41.6394 84.8146 41.6587 84.7992 41.6752C84.7838 41.6917 84.7653 41.7049 84.7447 41.7142C84.7242 41.7235 84.7019 41.7287 84.6793 41.7294C83.3988 41.7716 82.5069 42.4088 82.0038 43.6409C79.4165 49.9723 77.4362 54.8629 76.0631 58.3129C76.0484 58.3501 76.0228 58.3821 75.9897 58.4047C75.9565 58.4273 75.9173 58.4394 75.877 58.4396L74.703 58.4422C74.6562 58.4424 74.6104 58.4281 74.572 58.4011C74.5336 58.3742 74.5043 58.336 74.4881 58.2917C72.7009 53.3808 70.8535 48.4964 68.9457 43.6383C68.4705 42.429 67.6442 41.783 66.4667 41.7003C66.4204 41.697 66.377 41.676 66.3454 41.6417C66.3138 41.6074 66.2963 41.5623 66.2964 41.5155L66.299 40.7841C66.299 40.7407 66.3164 40.6991 66.3474 40.6684C66.3783 40.6377 66.4203 40.6205 66.4641 40.6205H74.3126C74.3573 40.6204 74.4002 40.6382 74.4321 40.6698C74.464 40.7014 74.4822 40.7444 74.4829 40.7894L74.4908 41.4838C74.4907 41.5258 74.4766 41.5664 74.4509 41.599C74.4252 41.6317 74.3893 41.6544 74.3492 41.6634L73.1412 41.93C72.7149 42.0233 72.5769 42.2759 72.7271 42.6878L76.5295 53.0904C76.5872 53.2471 76.6483 53.2488 76.7129 53.0957Z" fill="black"/>
    <path d="M125.853 53.1564C126.901 50.0488 128.293 47.0257 129.412 43.9287C129.972 42.3815 129.627 41.9696 128.073 41.7954C127.732 41.7566 127.56 41.5648 127.556 41.2198L127.554 40.7525C127.553 40.7353 127.556 40.7182 127.563 40.7021C127.569 40.6861 127.578 40.6716 127.59 40.6593C127.602 40.647 127.617 40.6372 127.632 40.6306C127.648 40.6239 127.665 40.6205 127.682 40.6205H133.791C133.832 40.6203 133.872 40.6345 133.903 40.6605C133.935 40.6866 133.956 40.7229 133.963 40.763C134.016 41.0552 133.998 41.3351 133.911 41.6026C133.896 41.6478 133.867 41.6871 133.828 41.7146C133.79 41.7421 133.743 41.7566 133.696 41.7558C131.66 41.7346 131.042 43.6224 130.415 45.1749C128.647 49.5525 126.892 53.9353 125.151 58.3234C125.137 58.3586 125.112 58.3888 125.081 58.4099C125.05 58.4311 125.013 58.4424 124.975 58.4422H123.764C123.726 58.4423 123.689 58.4305 123.657 58.4082C123.626 58.386 123.602 58.3546 123.589 58.3181C121.19 51.7069 119.282 46.6684 117.863 43.2026C117.466 42.2345 116.699 41.7443 115.562 41.732C115.538 41.732 115.514 41.7272 115.492 41.7177C115.47 41.7083 115.45 41.6944 115.433 41.677C115.417 41.6595 115.403 41.6388 115.394 41.6161C115.385 41.5934 115.381 41.569 115.381 41.5445L115.394 40.8026C115.395 40.7541 115.415 40.7077 115.449 40.6736C115.483 40.6396 115.53 40.6204 115.578 40.6205H123.395C123.438 40.6205 123.479 40.6377 123.51 40.6684C123.54 40.6991 123.557 40.7407 123.557 40.7841V41.5313C123.557 41.5663 123.545 41.6001 123.523 41.6271C123.501 41.654 123.471 41.6725 123.437 41.6792L122.195 41.93C121.789 42.0128 121.658 42.2495 121.802 42.6403L125.656 53.1591C125.723 53.3456 125.788 53.3448 125.853 53.1564Z" fill="black"/>
    <path d="M170.805 50.0092C170.783 51.831 170.783 53.651 170.805 55.4693C170.831 57.4891 174.039 56.8634 175.365 56.8475C176.649 56.829 177.902 54.4845 178.384 53.3914C178.4 53.3533 178.429 53.3224 178.467 53.3045C178.504 53.2865 178.546 53.2827 178.586 53.2937L179.325 53.4891C179.37 53.5015 179.409 53.5314 179.433 53.5723C179.457 53.6133 179.464 53.6621 179.453 53.7082L178.431 57.9591C178.42 58.0028 178.396 58.0417 178.36 58.0695C178.325 58.0972 178.282 58.1123 178.237 58.1122H164.634C164.599 58.1122 164.566 58.0983 164.541 58.0735C164.517 58.0488 164.503 58.0152 164.503 57.9802V57.2673C164.503 57.2308 164.516 57.1954 164.54 57.1677C164.564 57.14 164.597 57.1219 164.634 57.1168C166.049 56.9267 167.053 56.9663 167.084 55.3003C167.151 51.479 167.151 47.6576 167.087 43.8363C167.066 42.4581 166.644 41.5472 165.119 41.7531C165.1 41.7554 165.081 41.7536 165.062 41.748C165.044 41.7424 165.027 41.7331 165.013 41.7207C164.999 41.7082 164.987 41.6929 164.979 41.6758C164.971 41.6586 164.967 41.64 164.967 41.6211L164.959 40.7868C164.959 40.7434 164.976 40.7017 165.006 40.671C165.037 40.6403 165.078 40.6231 165.121 40.6231L177.598 40.6152C177.632 40.6151 177.666 40.6285 177.691 40.6525C177.717 40.6766 177.732 40.7095 177.734 40.7445L178.012 44.8C178.015 44.8472 178 44.8939 177.97 44.9306C177.939 44.9673 177.896 44.9914 177.849 44.998L177.063 45.1089C177.026 45.114 176.989 45.1052 176.958 45.0843C176.927 45.0634 176.905 45.0317 176.895 44.9954C175.957 41.3545 174.236 41.901 171.188 41.9485C171.083 41.9499 170.983 41.9928 170.91 42.0679C170.836 42.143 170.795 42.2443 170.795 42.3498L170.792 48.3221C170.792 48.3454 170.797 48.3685 170.806 48.39C170.815 48.4115 170.828 48.431 170.844 48.4472C170.86 48.4635 170.88 48.4762 170.901 48.4846C170.922 48.4931 170.945 48.4971 170.968 48.4964L174.259 48.4224C174.359 48.4191 174.455 48.3798 174.529 48.3115C175.109 47.7624 175.427 47.0803 175.483 46.2653C175.486 46.2203 175.506 46.1779 175.539 46.147C175.572 46.116 175.616 46.0989 175.661 46.099H176.46C176.503 46.099 176.545 46.1165 176.575 46.1477C176.606 46.1789 176.623 46.2212 176.623 46.2653V52.0026C176.623 52.0409 176.608 52.0778 176.582 52.1054C176.555 52.1329 176.519 52.1491 176.481 52.1505L175.666 52.1795C175.628 52.1802 175.592 52.1672 175.562 52.1431C175.533 52.1189 175.513 52.085 175.506 52.0475C175.372 51.2977 175.192 50.7485 174.967 50.4C174.443 49.5894 171.83 49.8535 170.939 49.8746C170.904 49.8753 170.87 49.8897 170.845 49.9148C170.82 49.9399 170.806 49.9737 170.805 50.0092Z" fill="black"/>
    <path d="M189.17 48.9083C189.205 48.9751 189.239 48.9751 189.272 48.9083C190.245 46.9967 191.199 45.0808 192.134 43.1604C192.716 41.967 191.269 41.7716 190.512 41.7162C190.476 41.7135 190.443 41.6973 190.419 41.6709C190.394 41.6444 190.381 41.6097 190.381 41.5736V40.7525C190.381 40.7175 190.395 40.6839 190.419 40.6591C190.444 40.6344 190.477 40.6205 190.512 40.6205L196.463 40.6178C196.5 40.6178 196.536 40.6328 196.562 40.6594C196.589 40.6861 196.604 40.7224 196.605 40.7604V41.571C196.605 41.6088 196.59 41.6453 196.564 41.6728C196.539 41.7003 196.503 41.7168 196.466 41.7188C195.171 41.8015 194.181 42.4616 193.497 43.699C192.108 46.2108 191.093 48.1003 190.452 49.3677C189.613 51.0337 189.933 54.3446 190.129 56.1848C190.138 56.2661 190.178 56.3411 190.242 56.3934C190.817 56.8651 191.489 57.0808 192.26 57.0403C192.278 57.0392 192.297 57.0419 192.315 57.0483C192.332 57.0547 192.348 57.0646 192.362 57.0774C192.376 57.0903 192.387 57.1057 192.394 57.1229C192.402 57.1401 192.406 57.1587 192.407 57.1776L192.414 57.9459C192.414 57.99 192.397 58.0323 192.366 58.0635C192.335 58.0947 192.293 58.1122 192.249 58.1122H184.023C184.006 58.1122 183.989 58.1088 183.974 58.1021C183.958 58.0955 183.944 58.0857 183.932 58.0734C183.92 58.0611 183.91 58.0465 183.904 58.0305C183.898 58.0145 183.895 57.9974 183.895 57.9802L183.898 57.4733C183.898 57.3673 183.937 57.265 184.006 57.1846C184.075 57.1043 184.17 57.0513 184.275 57.035C185.42 56.8581 186.06 56.8634 186.175 55.4984C186.309 53.9116 186.539 51.3083 185.803 49.8667C184.424 47.1683 183.15 44.8625 181.979 42.9492C181.494 42.1571 180.758 41.7461 179.773 41.7162C179.736 41.7148 179.702 41.6995 179.676 41.6734C179.651 41.6473 179.637 41.6125 179.637 41.5762V40.7525C179.637 40.7175 179.651 40.6839 179.675 40.6591C179.7 40.6344 179.733 40.6205 179.768 40.6205H187.367C187.402 40.6205 187.435 40.6344 187.46 40.6591C187.484 40.6839 187.498 40.7175 187.498 40.7525V41.5498C187.498 41.5841 187.487 41.6172 187.465 41.6437C187.444 41.6702 187.414 41.6883 187.38 41.6951L186.35 41.9063C185.881 42.0031 185.756 42.2654 185.976 42.6931L189.17 48.9083Z" fill="black"/>
    <path d="M87.0639 50.7881L89.0765 45.5604C89.0826 45.5449 89.0932 45.5317 89.1069 45.5225C89.1207 45.5133 89.1369 45.5085 89.1534 45.5088C89.1699 45.5091 89.1859 45.5144 89.1993 45.5241C89.2127 45.5338 89.2229 45.5474 89.2284 45.563L91.1493 50.8224C91.154 50.835 91.1556 50.8486 91.1539 50.862C91.1522 50.8754 91.1472 50.8881 91.1395 50.8991C91.1317 50.9101 91.1213 50.9189 91.1093 50.9249C91.0973 50.9309 91.084 50.9338 91.0707 50.9333L87.1373 50.899C87.1243 50.8986 87.1117 50.8951 87.1004 50.8887C87.0891 50.8824 87.0794 50.8735 87.0722 50.8626C87.0651 50.8518 87.0606 50.8393 87.0591 50.8264C87.0577 50.8134 87.0593 50.8003 87.0639 50.7881Z" fill="white"/>
    <path d="M136.338 50.7855L138.34 45.5525C138.346 45.5363 138.356 45.5223 138.37 45.5125C138.385 45.5027 138.401 45.4974 138.418 45.4974C138.435 45.4974 138.452 45.5027 138.466 45.5125C138.48 45.5223 138.491 45.5363 138.497 45.5525L140.407 50.8224C140.411 50.835 140.413 50.8484 140.411 50.8616C140.409 50.8747 140.404 50.8871 140.396 50.8979C140.388 50.9087 140.378 50.9176 140.366 50.9237C140.355 50.9299 140.342 50.9332 140.329 50.9333L136.414 50.899C136.4 50.8986 136.387 50.895 136.376 50.8885C136.364 50.882 136.354 50.8729 136.347 50.8618C136.339 50.8507 136.335 50.838 136.333 50.8247C136.332 50.8115 136.333 50.798 136.338 50.7855Z" fill="white"/>
    <path d="M38.1938 62.9413C38.2358 63.1754 38.3432 63.369 38.5162 63.5221C38.5483 63.5504 38.5859 63.5715 38.6266 63.5843C38.6672 63.597 38.7099 63.601 38.752 63.5961C39.4176 63.5168 40.0771 63.5406 40.7305 63.6673C40.7505 63.671 40.7694 63.6795 40.7853 63.6923C40.8012 63.705 40.8138 63.7216 40.8218 63.7404C40.8299 63.7592 40.8332 63.7798 40.8314 63.8002C40.8296 63.8206 40.8229 63.8403 40.8117 63.8574C40.6073 64.1664 37.3238 64.0238 37.1902 64.0159L31.032 53.1274C31.0109 53.0896 31.0049 53.0452 31.0151 53.0034C31.0254 52.9616 31.0511 52.9257 31.087 52.903L31.9387 52.3538C31.9563 52.3422 31.9761 52.3344 31.997 52.3309C32.0178 52.3274 32.0392 52.3283 32.0598 52.3335C32.0804 52.3387 32.0998 52.3481 32.1169 52.3611C32.1339 52.3741 32.1481 52.3905 32.1588 52.4093L38.1938 62.9413Z" fill="black"/>
    <path d="M37.1905 64.0158C37.3241 64.0238 40.6076 64.1663 40.812 63.8574C40.8232 63.8403 40.8299 63.8206 40.8317 63.8002C40.8335 63.7798 40.8302 63.7592 40.8221 63.7404C40.8141 63.7216 40.8015 63.705 40.7856 63.6923C40.7696 63.6795 40.7508 63.671 40.7308 63.6673C40.0774 63.5406 39.4179 63.5168 38.7523 63.596C38.7102 63.601 38.6675 63.597 38.6268 63.5843C38.5862 63.5715 38.5486 63.5504 38.5165 63.5221C38.3435 63.369 38.2361 63.1754 38.1941 62.9413L38.4143 62.8013C38.4858 62.755 38.57 62.7319 38.6553 62.7353C40.3168 62.7881 43.802 62.8779 45.2066 63.7043C45.4617 63.8539 45.4512 63.9806 45.1752 64.0845C43.464 64.7393 41.3047 64.8238 39.4861 64.9373C34.2747 65.2577 29.0608 65.2832 23.8442 65.0139C22.6571 64.9531 18.6451 64.7287 17.7724 64.0819C17.4982 63.8794 17.5217 63.7219 17.8432 63.6092C19.122 63.1586 20.4026 62.9729 21.6849 63.0522C22.7121 63.4042 23.8695 63.6937 25.1571 63.9208C26.1127 64.0898 26.6018 63.6726 26.6245 62.6693C27.2325 62.6499 27.8143 62.6306 28.3698 62.6112C30.8366 62.5267 33.3261 62.5232 35.8383 62.6007C35.9358 62.6033 36.029 62.6417 36.1008 62.7087C36.1726 62.7757 36.218 62.8667 36.2287 62.965C36.2899 63.5107 36.6105 63.8609 37.1905 64.0158Z" fill="#C7C7C7"/>
  </g>
  <defs>
    <clipPath id="clip0_130_2532">
      <rect width="212" height="65" fill="white"/>
    </clipPath>
  </defs>
</svg>